<svg width="31" height="31" viewBox="0 0 31 31" fill="none" xmlns="http://www.w3.org/2000/svg">
<g opacity="0.5" clip-path="url(#clip0_545_2727)">
<g style="mix-blend-mode:overlay">
<path fill-rule="evenodd" clip-rule="evenodd" d="M28.0789 30.1246C28.8402 30.121 29.6053 30.1175 30.3754 30.1175V0.24764H20.7082C21.4037 8.50854 24.1048 15.9049 28.0354 22.9517C18.522 18.2141 12.9545 10.5104 10.8643 0.193848H0.624634V30.0407H10.2495C9.97854 26.5822 9.33033 23.268 8.34982 20.0383C8.36984 19.908 8.3876 19.815 8.40845 19.7356C8.41531 19.7094 8.42145 19.6892 8.42647 19.6741C8.44277 19.6649 8.4663 19.6529 8.49888 19.6387C8.64449 19.5754 8.86482 19.5155 9.18418 19.4634C9.24496 19.4534 9.31774 19.443 9.40066 19.4312L9.40071 19.4312L9.40073 19.4312C10.0368 19.3403 11.2693 19.1641 12.2539 18.4625L12.2557 18.4612C13.0611 17.886 13.5381 17.1008 13.8151 16.6447L9.966 15.2536C9.92754 15.2807 9.82806 15.3361 9.57844 15.3961C9.37439 15.4451 9.18595 15.4742 8.92336 15.5148L8.92332 15.5148C8.8136 15.5317 8.69093 15.5506 8.54877 15.5739C8.157 15.6379 7.56186 15.7506 6.94493 16.0169C5.74035 12.9657 4.24523 9.96965 2.49966 6.97547C2.83272 7.12895 3.07933 7.2389 3.2728 7.32516C3.56366 7.45484 3.73442 7.53098 3.89825 7.62097C12.309 12.1971 17.5038 19.2054 19.7553 28.473C19.9013 29.0801 20.5046 30.0253 20.9311 30.0445C23.2963 30.1467 25.6682 30.1357 28.0789 30.1246ZM8.39748 19.6924L8.39545 19.694C8.39542 19.694 8.39606 19.6935 8.39748 19.6924Z" fill="white"/>
</g>
</g>
<defs>
<clipPath id="clip0_545_2727">
<rect width="29.7507" height="29.9377" fill="white" transform="translate(0.624634 0.193848)"/>
</clipPath>
</defs>
</svg>
