<svg width="80" height="188" viewBox="0 0 80 188" fill="none" xmlns="http://www.w3.org/2000/svg">
<g opacity="0.2">
<path d="M28.6009 65.2694C28.6009 65.2694 18.7224 52.4976 17.1059 56.0362C15.4894 59.5749 27.7532 67.491 27.7532 67.491C27.7532 67.491 16.4769 63.3505 16.0738 67.315C15.6708 71.2794 27.2552 68.5788 27.2552 68.5788C27.2552 68.5788 12.7452 69.5933 15.4207 73.6012C18.0963 77.6091 28.5558 69.9611 28.5558 69.9611C28.5558 69.9611 19.2431 78.7354 21.594 81.3577C23.9449 83.9801 30.3474 71.3448 30.3474 71.3448C30.3474 71.3448 25.0813 83.5284 29.2568 85.04C33.4324 86.5515 32.1716 70.7521 32.1716 70.7521C32.1716 70.7521 32.8558 84.934 36.707 84.7107C40.5582 84.4873 33.1 71.1097 33.1 71.1097C33.1 71.1097 42.2609 84.0518 44.4792 80.6747C46.6974 77.2975 33.7689 69.7387 33.7689 69.7387C33.7689 69.7387 46.6192 78.9042 48.3068 75.9349C49.9945 72.9656 34.1416 68.6759 34.1416 68.6759C34.1416 68.6759 50.5287 72.5566 50.104 68.6531C49.6792 64.7496 33.3782 67.1112 33.3782 67.1112C33.3782 67.1112 51.0555 63.7806 47.7523 59.749C44.4491 55.7175 32.5996 66.1399 32.5996 66.1399C32.5996 66.1399 43.9702 54.6057 41.1556 52.2713C38.3411 49.937 31.0103 65.7892 31.0103 65.7892C31.0103 65.7892 37.4974 51.9415 34.5034 49.7792C31.5093 47.6169 30.4493 65.222 30.4493 65.222C30.4493 65.222 29.3662 50.2713 25.4056 50.9068C21.4451 51.5423 28.6009 65.2694 28.6009 65.2694Z" fill="#FFF5F6"/>
<path d="M31.7633 67.1768C31.7633 67.1768 35.2696 64.2012 36.4144 66.0579C37.5591 67.9147 31.7158 68.1536 31.916 68.0453C32.1163 67.9371 36.2415 67.6875 36.3908 70.4053C36.5401 73.123 31.7532 68.6672 31.7532 68.6672C31.7532 68.6672 34.2974 70.544 33.6374 72.7635C32.9774 74.983 31.2332 69.0716 31.2332 69.0716C31.2332 69.0716 32.5924 72.3732 30.5793 73.2902C28.5661 74.2072 30.8913 69.0336 30.8913 69.0336C30.8913 69.0336 28.4151 73.1145 26.886 71.5121C25.357 69.9097 30.4544 68.4378 30.4544 68.4378C30.4544 68.4378 26.7929 69.9454 26.4235 67.9269C26.0541 65.9085 30.2861 67.9197 30.2861 67.9197C30.2861 67.9197 26.6498 65.6404 28.3383 64.7386C30.0268 63.8369 30.5278 67.1662 30.5278 67.1662C30.5278 67.1662 30.1368 62.2434 32.3858 62.8977C34.6349 63.552 31.7633 67.1768 31.7633 67.1768Z" fill="#F63D68"/>
<path d="M52.2115 30.6104C51.5971 30.1456 50.9399 29.7403 50.2487 29.4C49.5843 29.0394 48.8712 28.7768 48.1316 28.6204C47.27 28.4805 46.3194 28.7188 45.9939 29.625C45.7202 30.3888 46.1464 31.1449 46.7232 31.652C47.3327 32.1157 48.0238 32.4608 48.7606 32.6694C49.4559 32.9146 50.1754 33.0847 50.9069 33.1766C51.619 33.267 52.3599 33.2892 52.9349 32.7884C53.1077 32.6465 53.2366 32.4584 53.3065 32.246C53.3765 32.0336 53.3846 31.8057 53.3299 31.5889C53.192 31.1968 52.9165 30.8681 52.5545 30.6637C51.2085 29.7096 49.5718 29.2548 47.9265 29.3777C47.8166 29.3695 47.7063 29.3847 47.6028 29.4223C47.4992 29.4598 47.4048 29.5189 47.3257 29.5956C47.2467 29.6723 47.1847 29.7648 47.144 29.8672C47.1033 29.9695 47.0848 30.0793 47.0895 30.1894C47.0943 30.2994 47.1224 30.4072 47.1718 30.5056C47.2213 30.604 47.291 30.6908 47.3764 30.7604C47.4618 30.8299 47.561 30.8805 47.6674 30.909C47.7738 30.9374 47.8851 30.943 47.9938 30.9253C48.2534 30.9069 48.5138 30.9021 48.7739 30.9112C48.8376 30.914 48.8978 30.918 48.9626 30.9244C48.8058 30.9126 49.0523 30.9345 49.0605 30.9358C49.1996 30.9533 49.3364 30.9756 49.4731 30.9979C49.9614 31.0708 50.4355 31.2185 50.8788 31.4358C51.105 31.5471 51.324 31.6725 51.5345 31.8113C51.4252 31.7408 51.5603 31.8304 51.5861 31.8495L51.7363 31.9615L51.8008 32.0151C51.864 32.077 51.8793 32.0877 51.8477 32.0509C51.8193 32.0601 51.7954 31.7932 51.8003 31.772C51.8052 31.7508 51.9341 31.5559 51.8889 31.598C51.8438 31.6402 52.062 31.4908 51.9209 31.5877C52.0948 31.5312 51.7797 31.6845 51.9209 31.5877C51.8854 31.5992 51.8499 31.6107 51.8144 31.6223C51.7789 31.6338 51.5912 31.6477 51.7896 31.6303C51.7541 31.6419 51.7186 31.6534 51.675 31.6401C51.6314 31.6268 51.5617 31.6416 51.5039 31.6447C51.675 31.6401 51.4225 31.6358 51.406 31.6333C50.2577 31.527 49.1398 31.2046 48.1113 30.6831L47.9925 30.6196C47.9925 30.6196 47.7942 30.4801 47.928 30.5779C47.8338 30.5105 47.7451 30.4356 47.663 30.354L47.5646 30.2565C47.6863 30.3896 47.5542 30.2245 47.5461 30.1997L47.4797 30.0918C47.5811 30.259 47.4693 30.0598 47.4508 30.0031C47.5154 30.2018 47.4728 30.0705 47.4635 30.0421L47.457 30.1306C47.4776 30.0493 47.4717 30.0551 47.4357 30.1375L47.4644 30.081C47.4191 30.1429 47.4143 30.1523 47.45 30.1093L47.4784 30.1C47.4072 30.1585 47.4119 30.1609 47.4784 30.1L47.4074 30.1231C47.4381 30.1092 47.4703 30.0988 47.5033 30.092C47.5991 30.0608 47.3476 30.0837 47.5388 30.0804C47.6143 30.0834 47.6863 30.0757 47.763 30.0821C47.6297 30.0705 47.836 30.1016 47.8607 30.1053C48.4551 30.2415 49.0278 30.4595 49.5623 30.7531C50.1207 31.0262 50.652 31.3515 51.1492 31.7246C51.2163 31.8185 51.3033 31.8964 51.4039 31.9527C51.5046 32.0091 51.6165 32.0426 51.7316 32.0507C51.8467 32.0588 51.9621 32.0415 52.0697 31.9998C52.1773 31.9581 52.2744 31.8933 52.354 31.8097C52.4336 31.7262 52.4938 31.6262 52.5303 31.5167C52.5668 31.4073 52.5786 31.2911 52.565 31.1765C52.5514 31.062 52.5127 30.9518 52.4516 30.8539C52.3904 30.7561 52.3085 30.6729 52.2115 30.6104Z" fill="#FFE4E8"/>
<path d="M55.245 37.386C54.6186 37.1076 53.967 36.8896 53.2992 36.7351C52.643 36.5873 51.8829 36.4459 51.292 36.8615C50.5398 37.3963 50.6669 38.3791 51.2513 38.97C51.7358 39.3886 52.3069 39.6948 52.9237 39.8666C53.5533 40.1009 54.2007 40.2842 54.8597 40.4147C55.1448 40.4712 55.4289 40.5123 55.7097 40.5309C56.0592 40.5889 56.4136 40.6117 56.7677 40.5992C57.4999 40.5339 58.2385 40.0781 58.1941 39.2529C58.1496 38.4276 57.3619 38.0322 56.7138 37.7523C55.3987 37.1676 53.9469 36.9601 52.5207 37.1529C52.3363 37.1882 52.1707 37.2886 52.0541 37.4358C51.9375 37.583 51.8776 37.7671 51.8853 37.9547C51.8931 38.1423 51.9679 38.3209 52.0962 38.458C52.2245 38.5951 52.3978 38.6816 52.5845 38.7016C53.0468 38.6436 53.5138 38.6325 53.9784 38.6686C54.0246 38.6536 54.0858 38.6729 54.1388 38.6792C54.0339 38.6702 54.1637 38.6712 54.1779 38.6665C54.284 38.6791 54.3901 38.6918 54.4985 38.7115C54.7425 38.7499 54.9829 38.8013 55.2207 38.8692C55.6185 38.9717 56.0028 39.1208 56.3656 39.3133L56.5454 39.4079C56.5454 39.4079 56.6676 39.482 56.5902 39.4248C56.6294 39.4638 56.6713 39.5 56.7156 39.5331C56.6473 39.5161 56.6245 39.2527 56.6252 39.3153C56.633 39.2142 56.6735 39.1184 56.7406 39.0424C56.7084 39.0882 56.6421 39.1136 56.7725 39.032C56.8045 39.0216 56.9393 38.9778 56.8045 39.0216C56.7796 39.0297 56.6106 39.065 56.7228 39.0482C56.8351 39.0313 56.5717 39.0541 56.5363 39.0538C56.5009 39.0535 56.4538 39.0414 56.4077 39.0564L56.2956 39.0496C56.127 39.0377 55.8369 39.0025 55.6224 38.9702C55.1372 38.8938 54.6572 38.7877 54.1851 38.6524C53.7502 38.53 53.325 38.3757 52.9129 38.1908C52.8117 38.1452 52.707 38.1007 52.6118 38.0493C52.5669 38.0289 52.5236 38.0049 52.4826 37.9775C52.5812 38.0396 52.4826 37.9775 52.4756 37.9562C52.4687 37.9349 52.2246 37.7631 52.3466 37.849C52.1905 37.7428 52.3892 37.8351 52.3466 37.849C52.3224 37.7745 52.3201 37.7674 52.3397 37.8277C52.3492 37.8676 52.3493 37.9093 52.34 37.9492C52.3311 37.9911 52.313 38.0304 52.2872 38.0645C52.2657 38.095 52.1165 38.167 52.2016 38.1394C52.086 38.1338 52.2868 38.1117 52.2016 38.1394C52.3173 38.145 52.3244 38.1309 52.3846 38.1349C52.2619 38.1316 52.3846 38.1349 52.4023 38.1291C52.4201 38.1233 52.5674 38.1539 52.6475 38.1711C52.7276 38.1882 52.9079 38.2238 53.0351 38.2531C53.3072 38.3177 53.5781 38.3906 53.8418 38.4775C54.1055 38.5645 54.289 38.6461 54.5607 38.758C54.7481 38.8514 54.9647 38.8675 55.1638 38.8028C55.363 38.7381 55.5288 38.5977 55.6254 38.412C55.6727 38.3194 55.7012 38.2184 55.7094 38.1147C55.7176 38.0111 55.7053 37.9068 55.6732 37.8079C55.641 37.709 55.5897 37.6175 55.5222 37.5384C55.4546 37.4594 55.3722 37.3944 55.2795 37.3473L55.245 37.386Z" fill="#FFE4E8"/>
<path d="M47.0143 36.8467C45.6947 35.9006 44.1919 35.2409 42.6024 34.9097C41.7823 34.7406 40.4819 34.4215 40.1023 35.463C39.7515 36.4245 40.725 37.0656 41.4264 37.4734C42.8241 38.2687 44.3815 38.7425 45.9853 38.8604C46.7896 38.9208 47.9699 39.0631 48.3671 38.1846C48.4631 37.9436 48.482 37.6787 48.4211 37.4265C48.3603 37.1743 48.2227 36.9472 48.0273 36.7765C47.7074 36.4965 47.3274 36.2938 46.9166 36.1839C45.0985 35.5458 43.1807 35.2387 41.2543 35.2771C41.047 35.289 40.8526 35.382 40.7133 35.5359C40.5739 35.6898 40.5006 35.8924 40.5093 36.0999C40.5228 36.3061 40.6157 36.499 40.7684 36.6381C40.9212 36.7773 41.122 36.8518 41.3285 36.846C42.6192 36.8222 43.9074 36.9697 45.1594 37.2846C45.7533 37.3937 46.3307 37.5794 46.8769 37.8369C46.7759 37.7795 46.9098 37.8655 46.932 37.8857C46.9543 37.906 46.9257 37.7818 46.9636 37.9226C46.9224 37.7838 46.9207 37.6362 46.9586 37.4965C47.038 37.2941 47.3295 37.2975 47.1311 37.3149C46.8305 37.3358 46.5288 37.3355 46.2283 37.3139C45.0912 37.2417 43.9768 36.9629 42.9397 36.4912C42.6798 36.3677 42.4224 36.2395 42.1709 36.0936C41.9358 35.9905 41.722 35.8444 41.5405 35.6628C41.6258 35.7685 41.5405 35.6628 41.5347 35.645L41.5578 35.716C41.6281 35.9325 41.5205 36.1205 41.2644 36.2743L41.2467 36.2801C41.2005 36.2951 41.2218 36.2882 41.3198 36.2877C41.2325 36.2729 41.4188 36.3027 41.4341 36.3016C41.7536 36.343 42.0683 36.3937 42.3852 36.4634C43.665 36.7387 44.8776 37.265 45.9528 38.0117C46.1111 38.1492 46.3168 38.2197 46.5262 38.2081C46.7356 38.1964 46.9322 38.1036 47.0743 37.9494C47.2111 37.7945 47.2812 37.5918 47.2692 37.3855C47.2573 37.1792 47.1644 36.986 47.0107 36.8478L47.0143 36.8467Z" fill="#FFE4E8"/>
<path d="M55.9226 44.3384C54.4758 43.2432 52.9182 42.3027 51.2754 41.5322C50.8401 41.2993 50.3684 41.1421 49.8805 41.0673C49.593 41.0528 49.3095 41.1392 49.0789 41.3116C48.8483 41.4839 48.6852 41.7314 48.6177 42.0112C48.3309 43.1089 49.3891 43.7695 50.1594 44.2805C51.6271 45.2429 53.2293 45.9825 54.9139 46.475C55.3412 46.6349 55.7908 46.7271 56.2465 46.7483C56.5259 46.7511 56.7976 46.6577 57.0162 46.4838C57.2348 46.3098 57.3869 46.066 57.4469 45.7932C57.625 44.8682 56.618 44.1478 55.976 43.6815C54.3478 42.5468 52.4716 41.9048 50.6137 41.3313C50.4116 41.2881 50.2007 41.3265 50.0268 41.4382C49.8529 41.5498 49.7301 41.7256 49.6851 41.9273C49.645 42.1297 49.6847 42.3398 49.796 42.5136C49.9073 42.6873 50.0816 42.8113 50.2823 42.8594C51.5581 43.2325 52.798 43.7185 53.9874 44.3119C54.5385 44.5994 55.055 44.949 55.5266 45.3538C55.6489 45.4527 55.7647 45.5592 55.8735 45.6727L55.8851 45.7082C55.8406 45.6559 55.8441 45.6666 55.8966 45.7437C55.8735 45.6565 55.8857 45.5638 55.9304 45.4855L55.9834 45.3466C56.2815 45.2498 56.3385 45.2077 56.1543 45.2205C56.2107 45.2492 56.093 45.2129 56.0847 45.2117C55.8918 45.1744 55.7014 45.1248 55.5147 45.0634C54.195 44.696 52.9274 44.1626 51.7421 43.4758C51.1972 43.1563 50.6733 42.8023 50.1735 42.416C50.0914 42.3564 50.0808 42.348 50.1207 42.3861C49.9695 42.2469 50.1554 42.3238 50.1126 42.3612C50.0698 42.3987 50.1472 42.4677 49.9728 42.5832C49.6502 42.7979 49.685 42.5669 49.8283 42.6577C49.9536 42.7164 50.0834 42.7647 50.2166 42.8022C50.4072 42.8816 50.5989 42.9644 50.7836 43.0496C52.22 43.7378 53.5867 44.5631 54.8646 45.514C55.0215 45.6462 55.2229 45.7136 55.4278 45.7025C55.6327 45.6913 55.8256 45.6024 55.9672 45.4539C56.104 45.2983 56.1739 45.0949 56.1618 44.8881C56.1497 44.6812 56.0565 44.4875 55.9025 44.3488L55.9226 44.3384Z" fill="#FFE4E8"/>
<path d="M63.1582 44.2906C62.1866 43.6592 61.0971 43.231 59.9555 43.0319C59.7873 42.9981 59.6126 43.0197 59.4576 43.0934C59.3026 43.1671 59.1756 43.289 59.0957 43.4408C58.5646 44.5355 59.5733 45.5025 60.3855 46.094C61.1782 46.6744 62.0759 47.0956 63.0289 47.3343C63.4952 47.4442 63.9709 47.5091 64.4495 47.528C64.9803 47.5557 65.6092 47.5711 66.0345 47.2014C66.6033 46.7301 66.4969 45.9799 66.0394 45.4655C65.6674 45.1139 65.2165 44.8567 64.7246 44.7156C63.5118 44.2438 62.2994 43.7849 61.0873 43.3391C60.8997 43.2466 60.6835 43.2311 60.4846 43.2957C60.2857 43.3603 60.12 43.5 60.0226 43.685C59.9281 43.8723 59.9115 44.0892 59.9763 44.2886C60.0411 44.4881 60.1821 44.6538 60.3685 44.7498C61.2594 45.0763 62.1218 45.4121 62.9973 45.7516L64.28 46.2216C64.46 46.2925 64.6329 46.3776 64.807 46.4427C64.7191 46.3653 64.9094 46.4801 64.807 46.4427L64.8714 46.5081C64.9032 46.5344 64.9334 46.5626 64.9617 46.5926C64.8985 46.5189 64.8868 46.507 64.9171 46.5521C64.9475 46.5972 64.9287 46.5876 64.9091 46.5273C64.8845 46.343 64.8477 46.2176 64.9905 46.0535C65.0235 46.0155 65.065 45.9859 65.1116 45.9671C65.2109 45.9348 65.1826 45.944 65.1116 45.9671C64.9227 45.9774 64.7267 45.9901 64.5485 45.9852C64.4683 45.9799 64.3857 45.9793 64.3008 45.9715C64.3008 45.9715 64.1357 45.9585 64.2289 45.9674L64.1617 45.9539C63.9746 45.9336 63.7884 45.9039 63.603 45.8647C63.4176 45.8256 63.2468 45.783 63.0906 45.7369C63.0117 45.7116 62.934 45.6897 62.854 45.6608C62.774 45.6319 62.7881 45.6391 62.7528 45.627C62.9046 45.6836 62.6892 45.6005 62.6798 45.5957C62.3538 45.462 62.0392 45.3018 61.7394 45.1166L61.6208 45.0413L61.5268 44.9816C61.5937 45.0305 61.4974 44.9637 61.4927 44.9613L61.3484 44.8552C61.1912 44.7336 61.0364 44.6073 60.891 44.474C60.8125 44.4015 60.7435 44.3219 60.6626 44.254C60.5817 44.1861 60.7303 44.3536 60.6626 44.254L60.5633 44.1175C60.5377 44.0823 60.5151 44.045 60.4957 44.0061C60.5165 44.07 60.5257 44.0984 60.4957 44.0061C60.4484 43.8606 60.4957 44.0061 60.5038 44.0309L60.4914 44.1134C60.5109 44.0286 60.5109 44.0286 60.4914 44.1134L59.6279 44.5235C59.8833 44.5663 60.1362 44.6229 60.3855 44.6932C60.5103 44.7272 60.6363 44.7648 60.7587 44.8035C60.7587 44.8035 60.9847 44.8831 60.8647 44.8397C60.9223 44.8602 60.9847 44.8831 61.0447 44.9107C61.5375 45.103 62.0101 45.3437 62.4554 45.6294C62.5479 45.6772 62.6489 45.7062 62.7527 45.7146C62.8565 45.7231 62.9609 45.7108 63.0599 45.6787C63.1589 45.6465 63.2506 45.595 63.3296 45.5272C63.4086 45.4593 63.4733 45.3765 63.5201 45.2835C63.6135 45.0961 63.6296 44.8795 63.5649 44.6804C63.5002 44.4812 63.3599 44.3155 63.1741 44.2188L63.1582 44.2906Z" fill="#FFE4E8"/>
<path d="M42.7661 40.3889C40.8607 39.8624 38.9153 39.4932 36.9494 39.285C36.7474 39.2486 36.539 39.2899 36.3662 39.4006C36.1933 39.5114 36.0687 39.6834 36.0173 39.8822C35.6862 40.904 36.8366 41.4013 37.5717 41.7314C38.439 42.1062 39.3123 42.4633 40.1916 42.8028C41.9433 43.484 43.7154 44.1076 45.508 44.6735C45.7104 44.7137 45.9205 44.6739 46.0943 44.5626C46.2681 44.4513 46.392 44.277 46.4401 44.0763C46.9192 42.6768 45.4765 41.5212 44.3878 40.9724C43.2319 40.3877 41.9286 40.1585 40.6425 40.3138C40.437 40.3279 40.2449 40.4204 40.1058 40.5722C39.9666 40.7241 39.8912 40.9236 39.8952 41.1295C39.9068 41.3364 39.9991 41.5304 40.1523 41.6699C40.3055 41.8095 40.5073 41.8833 40.7144 41.8756C41.6161 41.7496 42.5352 41.8699 43.3741 42.2239C43.9011 42.445 45.151 43.0434 44.912 43.7449L45.8394 43.1454C44.3489 42.6762 42.8601 42.1515 41.4162 41.6083C40.6855 41.3278 39.956 41.0391 39.2372 40.7468C38.8749 40.5978 38.5161 40.4475 38.1597 40.2926C37.9903 40.2181 37.8197 40.1519 37.6504 40.0657C37.2882 39.893 37.6406 39.9629 37.5523 40.2349L36.6251 40.8108C38.5892 41.0191 40.533 41.3875 42.4371 41.9123C42.5388 41.9388 42.6449 41.9444 42.7489 41.9288C42.8529 41.9132 42.9527 41.8768 43.0422 41.8216C43.1318 41.7665 43.2092 41.6938 43.27 41.608C43.3307 41.5221 43.3735 41.4249 43.3957 41.3221C43.4179 41.2193 43.4191 41.1131 43.3992 41.0099C43.3793 40.9066 43.3387 40.8084 43.2799 40.7213C43.2211 40.6341 43.1452 40.5597 43.0569 40.5026C42.9686 40.4455 42.8697 40.4068 42.7661 40.3889Z" fill="#FFE4E8"/>
<path d="M34.026 30.916C32.9532 30.587 31.8573 30.3385 30.7474 30.1724C29.6839 29.9886 28.6056 29.9042 27.5265 29.9202C26.6659 29.9526 25.5223 30.4302 25.5452 31.4547C25.5749 32.681 26.9771 32.9513 27.9081 33.2805C29.0302 33.6667 30.1576 34.0328 31.2902 34.3789C31.813 34.5387 32.3334 34.6913 32.8539 34.844C33.3903 35.0247 33.9374 35.172 34.4921 35.2848C35.0015 35.3973 35.5344 35.3217 35.9924 35.0719C36.248 34.9021 36.4436 34.6561 36.5517 34.3689C36.6598 34.0817 36.6748 33.7678 36.5946 33.4716C36.3679 32.5564 35.4701 31.8947 34.7126 31.4228C33.7984 30.8649 32.7692 30.5225 31.7031 30.4216C30.6369 30.3206 29.5617 30.4638 28.5592 30.8403C28.3831 30.9018 28.2347 31.0242 28.1408 31.1853C28.0468 31.3465 28.0134 31.5358 28.0466 31.7194C28.0798 31.9029 28.1773 32.0686 28.3217 32.1867C28.4661 32.3048 28.6479 32.3675 28.8344 32.3635C30.2288 32.4123 31.6131 32.6208 32.96 32.9849L33.2914 31.4568C31.6219 31.2616 29.9455 31.1419 28.2622 31.0977C28.0778 31.133 27.9122 31.2334 27.7956 31.3806C27.679 31.5278 27.6191 31.7119 27.6268 31.8995C27.6346 32.0871 27.7094 32.2657 27.8377 32.4028C27.966 32.5399 28.1393 32.6263 28.326 32.6464C29.8763 32.6842 31.4168 32.7879 32.9554 32.9707C33.1519 32.9993 33.3518 32.9524 33.515 32.8392C33.6781 32.7261 33.7922 32.5553 33.8343 32.3613C33.8764 32.1673 33.8433 31.9646 33.7416 31.7941C33.64 31.6236 33.4775 31.498 33.2868 31.4426C31.8076 31.052 30.2883 30.8333 28.759 30.7911L29.0389 32.3167C30.2993 31.8314 31.6943 31.8264 32.9581 32.3028C33.6 32.5464 34.1896 32.9102 34.6954 33.3745C34.8404 33.5157 34.9662 33.6754 35.0694 33.8494C35.059 33.8175 35.162 33.7722 35.1019 33.7682C34.9256 33.7658 34.7499 33.7467 34.5772 33.7112C32.8361 33.3038 31.1152 32.7172 29.426 32.1556C28.9904 32.0225 28.582 31.8766 28.1618 31.7306L27.5297 31.5122C27.4226 31.4725 27.1244 31.279 27.0205 31.2853C27.0843 31.2646 27.059 31.4886 27.0739 31.5583C27.0887 31.6281 26.9771 31.5623 27.0546 31.6077C27.0546 31.6077 27.0936 31.5951 27.1504 31.5766C27.4113 31.4925 27.687 31.4645 27.9594 31.4942C29.9024 31.5541 31.8283 31.876 33.6851 32.4511C33.8875 32.4957 34.0992 32.4581 34.2738 32.3465C34.4483 32.235 34.5715 32.0586 34.616 31.8563C34.6606 31.654 34.623 31.4423 34.5114 31.2677C34.3999 31.0931 34.2236 30.97 34.0212 30.9254L34.026 30.916Z" fill="#FFE4E8"/>
<path d="M37.6993 26.6424C36.0501 25.5404 34.1161 24.9418 32.1328 24.9196C31.2207 24.9021 29.9744 24.9186 29.4929 25.8519C29.0114 26.7853 29.8167 27.8146 30.6642 28.2494C31.6021 28.6837 32.5812 29.0228 33.5868 29.2617C34.5793 29.5245 35.5883 29.721 36.6069 29.8499C37.1151 29.9163 37.6292 29.965 38.1423 29.9984C38.6554 30.0318 39.3673 30.1458 39.8246 29.7539C40.0233 29.5763 40.152 29.3336 40.1878 29.0696C40.2235 28.8055 40.1639 28.5374 40.0197 28.3133C39.7452 27.912 39.37 27.5901 38.9316 27.3798C37.029 26.2489 34.8361 25.7021 32.6252 25.8073C32.4881 25.816 32.3556 25.8602 32.2408 25.9357C32.1259 26.0111 32.0327 26.1152 31.9703 26.2377C31.908 26.3601 31.8785 26.4967 31.885 26.6339C31.8914 26.7712 31.9335 26.9044 32.0071 27.0205C32.1734 27.2986 32.4319 27.5096 32.7377 27.6167C33.0436 27.7238 33.3773 27.7203 33.6808 27.6067C34.6123 27.2373 34.1362 25.7479 33.1976 26.1196C32.9562 26.198 33.2686 26.0966 33.3175 26.1748L32.6982 27.3845C34.1565 27.302 35.6145 27.5499 36.9636 28.1096C37.2852 28.2526 37.5992 28.4126 37.904 28.5887C38.1531 28.7275 38.4464 28.954 38.6438 29.0664L38.6565 29.1054C38.5543 28.8875 38.6609 28.6842 38.9786 28.4907C38.8971 28.4822 38.8151 28.48 38.7332 28.4841C38.5551 28.4792 38.3793 28.4696 38.1988 28.4576C37.799 28.4345 37.3945 28.3972 36.9865 28.3493C35.3913 28.1502 33.8227 27.777 32.3087 27.2363C31.9721 27.1144 31.6443 26.9691 31.3278 26.8017C31.2005 26.7406 31.084 26.6592 30.9827 26.5607C30.8984 26.4704 30.8375 26.2587 30.8802 26.5351C30.9017 26.6616 30.6744 26.602 30.8883 26.56C31.023 26.5398 31.1261 26.4827 31.2594 26.4943C31.6478 26.458 32.0382 26.4492 32.4279 26.4678C34.0642 26.5534 35.6436 27.0966 36.9865 28.0354C37.0792 28.0826 37.1802 28.1112 37.2838 28.1194C37.3875 28.1276 37.4917 28.1152 37.5906 28.0831C37.6895 28.051 37.7811 27.9997 37.8601 27.9321C37.9392 27.8646 38.0041 27.7821 38.0513 27.6894C38.1437 27.5019 38.1593 27.2856 38.0947 27.0868C38.0301 26.8879 37.8904 26.7221 37.7053 26.6247L37.6993 26.6424Z" fill="#FFE4E8"/>
<path d="M46.3892 47.0594C45.5435 46.4141 44.5972 45.9129 43.5882 45.5759C43.4525 45.5421 43.31 45.5471 43.177 45.5903C43.0439 45.6335 42.9257 45.7133 42.8358 45.8204C42.2817 46.5302 42.5665 47.4068 43.2304 47.9405C43.888 48.385 44.616 48.7149 45.3838 48.9163C46.9071 49.4303 48.489 49.7508 50.0922 49.8702C50.2469 49.8623 50.3957 49.8089 50.52 49.7165C50.6443 49.6242 50.7384 49.4971 50.7905 49.3513C50.8426 49.2055 50.8504 49.0475 50.8128 48.8973C50.7752 48.7471 50.694 48.6114 50.5794 48.5073C48.8513 46.9864 46.6575 46.0984 44.3581 45.9889C44.1521 46.0002 43.9588 46.0919 43.8197 46.2442C43.6806 46.3965 43.6069 46.5973 43.6143 46.8035C43.6275 47.0092 43.7198 47.2019 43.8718 47.3412C44.0238 47.4805 44.2238 47.5556 44.43 47.5508C44.6333 47.5598 44.836 47.5791 45.0373 47.6085C45.2884 47.6446 45.5429 47.6914 45.795 47.7547C46.2433 47.8544 46.6821 47.9927 47.1065 48.1682C47.9987 48.527 48.8212 49.0393 49.5367 49.6819L50.0226 48.3154C48.7766 48.2078 47.5454 47.9686 46.3496 47.6019C45.773 47.4263 45.2072 47.2171 44.655 46.9754C44.5364 46.9258 44.421 46.869 44.3094 46.8052C44.2424 46.7681 44.3668 46.8611 44.2636 46.773L44.13 46.6516C44.0655 46.598 44.16 46.7439 44.1185 46.6161C44.1092 46.5877 43.991 46.4653 44.0718 46.5449C44.0891 46.5982 44.1526 46.6246 44.0718 46.5449L44.1006 46.6337C44.1008 46.7168 44.075 46.7978 44.0269 46.8656L43.2745 47.1101C44.0252 47.3756 44.7314 47.7533 45.3689 48.2305C45.5255 48.3636 45.7271 48.4316 45.9322 48.4204C46.1374 48.4092 46.3304 48.3198 46.4716 48.1705C46.6084 48.0156 46.6784 47.8129 46.6665 47.6066C46.6546 47.4003 46.5617 47.2071 46.408 47.0689L46.3892 47.0594Z" fill="#FFE4E8"/>
<path d="M31.4644 39.4193C30.6286 38.9964 29.7822 38.5651 28.9296 38.1751C28.5158 37.9423 28.0421 37.838 27.5688 37.8757C27.2866 37.9101 27.0223 38.0322 26.8132 38.2247C26.604 38.4173 26.4606 38.6706 26.403 38.949C26.3628 39.2052 26.3837 39.4673 26.4638 39.714C26.544 39.9606 26.6812 40.1849 26.8643 40.3686C27.1732 40.6595 27.5353 40.8883 27.9307 41.0423C28.7031 41.4149 29.5053 41.7226 30.3288 41.9621C31.2873 42.2316 32.2945 42.28 33.2744 42.1037C33.4218 42.059 33.5518 41.9699 33.6465 41.8485C33.7412 41.7271 33.7961 41.5794 33.8035 41.4256C33.8151 41.2723 33.782 41.119 33.7083 40.9842C33.6345 40.8494 33.5233 40.7389 33.388 40.666C31.8067 39.6834 30.031 39.0555 28.1835 38.8256C27.9938 38.8076 27.8041 38.8593 27.6498 38.971C27.4955 39.0828 27.3871 39.2469 27.3451 39.4328C27.303 39.6186 27.3301 39.8134 27.4213 39.9807C27.5124 40.148 27.6614 40.2764 27.8404 40.3418L28.729 40.5043C28.9254 40.5329 29.1254 40.486 29.2885 40.3729C29.4516 40.2597 29.5658 40.0889 29.6078 39.8949C29.6499 39.701 29.6168 39.4982 29.5152 39.3277C29.4136 39.1572 29.251 39.0316 29.0604 38.9762L28.1754 38.8126L27.8404 40.3418C29.5614 40.5399 31.2148 41.1271 32.6753 42.059L32.7877 40.6177C32.9119 40.5774 32.6212 40.6365 32.5952 40.6411C32.4877 40.6485 32.3838 40.6548 32.2752 40.6587C32.1695 40.6644 32.0635 40.6648 31.9578 40.6598C31.9329 40.6679 31.644 40.6362 31.7619 40.6489C31.3618 40.6032 30.9661 40.5244 30.5789 40.4133C30.4741 40.3807 30.3705 40.3516 30.2693 40.3178L30.0703 40.249C29.862 40.1754 29.6585 40.0924 29.4585 40.0083C29.0856 39.8509 28.714 39.6852 28.3495 39.5054C28.2601 39.4599 28.1708 39.4144 28.0827 39.3606C28.1908 39.4275 27.9748 39.2701 27.9514 39.2463C28.0626 39.3593 27.9018 39.0937 27.9387 39.2073C27.9572 39.2641 27.9537 39.2534 27.9295 39.1789C27.9417 39.2769 27.9606 39.2747 27.9295 39.1789C27.917 39.2693 27.917 39.2693 27.9295 39.1789C27.9219 39.2267 27.9011 39.2715 27.8695 39.3082C27.8416 39.3414 27.8038 39.3647 27.7616 39.3747C27.68 39.4012 27.6764 39.4024 27.7616 39.3747C27.6236 39.3607 27.9124 39.4042 27.943 39.4138C27.9737 39.4235 28.0478 39.4465 27.9866 39.4271C28.036 39.4464 28.0854 39.4657 28.1325 39.4896C29.018 39.8964 29.8831 40.349 30.7602 40.7782C30.9473 40.8735 31.1646 40.8906 31.3642 40.8257C31.5639 40.7608 31.7296 40.6193 31.825 40.4322C31.9203 40.2452 31.9374 40.0279 31.8725 39.8282C31.8076 39.6286 31.6661 39.4628 31.479 39.3675L31.4644 39.4193Z" fill="#FFE4E8"/>
<path d="M67.3294 144.535C67.3294 144.535 63.2397 140.871 56.1857 144.35C56.1857 144.35 57.3763 148.084 56.5262 150.251C55.6761 152.419 63.0005 158.418 68.2722 151.241C68.2722 151.241 62.1515 154.952 64.1693 161.024C64.1693 161.024 65.3336 163.028 65.2404 164.321C65.1472 165.613 75.6764 165.717 74.9811 157.732C74.9811 157.732 76.9941 161.622 81.4163 162.009C81.4163 162.009 82.9659 161.786 84.2996 163.735C84.2996 163.735 90.3057 150.472 79.814 149.584C79.814 149.584 84.7815 149.068 86.0523 145.958C86.0523 145.958 88.278 141.556 89.5125 141.436C89.5125 141.436 81.9731 133.772 75.584 144.059C75.584 144.059 78.6198 139.788 75.5492 135.882C72.4785 131.977 67.8676 135.977 66.3836 134.234C66.3836 134.234 63.2289 140.354 67.3294 144.535Z" fill="#F63D68"/>
<path d="M74.3652 147.178C74.3652 147.178 75.2392 144.969 73.9036 144.605C72.5681 144.241 72.506 146.183 72.506 146.183C72.506 146.183 72.7556 144.023 71.0365 144.312C69.3174 144.601 70.7652 146.37 70.7652 146.37C70.7652 146.37 69.5141 144.664 68.9052 146.225C68.2962 147.787 70.0642 147.89 70.0642 147.89C70.0642 147.89 67.8637 148.231 68.9293 149.574C69.995 150.917 71.6243 150.432 71.3619 149.532C71.3619 149.532 69.7208 152.01 71.5693 152.038C73.4178 152.067 72.821 149.804 72.821 149.804C72.821 149.804 72.8297 152.517 74.1114 152.415C75.393 152.313 75.3824 149.41 74.0508 149.404C74.0508 149.404 76.5125 150.582 76.3964 149.095C76.2804 147.608 75.7258 146.466 74.3652 147.178Z" fill="#FFF5F6"/>
<path d="M115.241 109.971C115.241 109.971 104.311 87.9471 94.5623 98.4481C84.8139 108.949 75.3715 123.447 87.3229 129.303C99.2743 135.158 121.334 127.335 115.241 109.971Z" fill="#F63D68"/>
<path d="M60.166 92.6674L46.9596 90.5838L58.6887 95.993L46.6421 100.738L59.1367 99.0447L51.9528 111.634L60.9646 101.153L64.9277 113.497L64.5909 100.702L75.6027 110.029L68.0621 98.8384L82.83 93.3047L67.5077 95.0659L76.2339 83.4101L65.0059 93.221L66.6406 79.7768L62.7352 90.8575L56.9958 82.9106L60.166 92.6674Z" fill="#C01048"/>
<path d="M95.575 75.1938C95.25 73.5921 93.3517 73.679 93.3517 73.679L94.7465 73.372C94.7465 73.372 98.4531 75.2781 97.5001 73.6294C96.5472 71.9807 92.9281 73.5055 92.9281 73.5055C92.9281 73.5055 96.2661 71.786 95.0917 71.5306C93.9174 71.2751 92.3253 73.6153 92.3253 73.6153C91.1657 73.8276 90.0432 74.0981 88.9836 74.4109C90.1867 73.5249 92.8123 71.4361 91.4577 71.5542C89.9822 71.6808 88.2599 74.6255 88.2599 74.6255C87.1392 74.967 86.0906 75.3402 85.1318 75.7183C86.4335 74.41 89.7214 70.9782 88.0911 71.2972C86.3211 71.6457 84.7196 74.7232 84.063 76.1516C83.8002 76.26 83.5408 76.3729 83.283 76.4879C81.5458 77.2595 80.2982 77.9447 79.7794 78.2392C80.0316 77.2513 80.3427 76.2795 80.7111 75.3288C83.351 74.7175 86.1588 72.4225 84.3573 72.2125C83.175 72.0699 82.1356 72.8531 81.4642 73.5486C82.1276 72.1208 82.8806 70.7364 83.7186 69.4037C85.1089 69.045 89.3319 67.8782 88.0047 66.9491C86.9526 66.2157 85.4012 67.371 84.4858 68.2227C85.3315 66.9584 86.1791 65.8339 86.9451 64.8846C87.5502 64.7732 91.6667 63.9725 90.4533 63.2401C89.6951 62.7779 88.6715 63.2392 87.9286 63.7026C89.0822 62.3441 89.8871 61.5652 89.8871 61.5652C89.8871 61.5652 94.6132 60.0055 93.5677 58.7917C92.5222 57.578 89.8384 60.9611 89.8384 60.9611C88.9912 61.7753 88.205 62.5882 87.4711 63.3927C88.4165 61.447 90.1529 57.465 88.4126 58.0495C86.4183 58.7221 86.6818 63.0676 86.7823 64.1702C85.6659 65.4491 84.6216 66.7893 83.6542 68.1844C84.0632 66.0434 85.2476 59.0978 83.1383 60.5047C80.6564 62.1579 83.0104 69.1588 83.0104 69.1588C81.9847 70.7318 81.0716 72.3754 80.2779 74.0773C80.4843 72.1476 80.8514 66.8789 78.6377 67.6307C75.9285 68.5387 79.6658 75.4687 79.6658 75.4687C78.33 78.725 78.0514 80.8195 78.0514 80.8195C78.8286 81.1743 79.3612 80.1529 79.3612 80.1529C79.4073 79.8666 79.4595 79.5793 79.5171 79.2946C81.2806 78.0815 83.1713 77.0645 85.1556 76.2619C85.58 76.5828 89.7164 79.6671 89.8422 77.6534C89.9706 75.5378 86.2706 75.8213 86.2568 75.8214C86.9897 75.5413 87.7133 75.2854 88.416 75.0521C89.4674 75.4415 93.7471 76.9605 92.8438 75.4052C92.2776 74.4298 91.2115 74.3546 90.3743 74.4825L92.5432 73.8817C92.5432 73.8817 95.9016 76.7977 95.575 75.1938Z" fill="#F63D68"/>
<path d="M60.8796 57.2171C60.8796 57.2171 50.9574 58.899 51.8889 63.3598C52.8204 67.8206 57.8393 64.4045 57.8393 64.4045C57.8393 64.4045 50.4108 67.9522 53.0035 71.524C55.5962 75.0958 58.9177 70.03 58.9177 70.03C58.9177 70.03 54.0936 76.3884 58.7255 76.8531C63.3574 77.3179 62.6668 71.4486 62.6668 71.4486C62.6668 71.4486 63.9295 78.4504 66.7711 75.3494C69.6127 72.2484 67.843 70.9439 67.843 70.9439C67.843 70.9439 69.4604 74.1342 72.1861 72.3069C74.9119 70.4795 73.5431 63.936 73.5431 63.936C73.5431 63.936 66.8907 56.1782 60.8796 57.2171Z" fill="#F63D68"/>
<path d="M80.0771 45.2455L76.961 46.258L68.6933 57.2706C68.6933 57.2706 58.4841 55.8832 57.561 59.1769C56.638 62.4707 65.185 60.9766 65.185 60.9766C65.185 60.9766 60.2665 62.6611 61.1966 65.439C62.1267 68.217 69.5453 69.3968 68.8387 63.2973C68.8387 63.2973 69.2715 69.0973 71.7864 68.9276C74.3013 68.7579 75.2684 65.7323 71.2618 59.2101L81.6855 45.2566L80.0771 45.2455Z" fill="#89123E"/>
<path d="M72.7088 3.43927C72.7088 3.43927 56.9115 7.06148 58.4415 10.7196C59.9715 14.3778 73.5426 8.33598 75.2078 11.1301C76.8729 13.9243 55.2407 16.2053 54.1633 19.9298C53.0859 23.6543 60.6485 22.9824 69.1328 20.2688C77.6171 17.5552 80.9292 21.1915 77.1171 23.105C73.305 25.0186 57.4093 26.5264 58.5529 31.1812C59.6965 35.836 78.0443 25.9585 79.8994 28.9146C81.7545 31.8707 73.1121 33.1799 70.7673 35.9625C68.4225 38.7451 69.3141 41.0059 76.782 38.654C84.2498 36.3021 90.7929 35.7652 87.7237 25.7759C84.6546 15.7866 82.6894 1.98562 72.7088 3.43927Z" fill="#FFF5F6"/>
</g>
</svg>
