<svg width="66" height="187" viewBox="0 0 66 187" fill="none" xmlns="http://www.w3.org/2000/svg">
<g opacity="0.2">
<path d="M13.4721 138.622C13.4721 138.622 13.957 154.761 17.3447 152.849C20.7324 150.936 15.4637 137.323 15.4637 137.323C15.4637 137.323 22.1528 147.301 24.8091 144.33C27.4654 141.36 16.506 136.736 16.506 136.736C16.506 136.736 28.8412 144.444 29.0324 139.629C29.2237 134.814 16.2663 134.853 16.2663 134.853C16.2663 134.853 28.9579 133.228 28.5973 129.725C28.2368 126.222 15.6303 132.68 15.6303 132.68C15.6303 132.68 27.052 125.919 24.5624 122.242C22.0727 118.565 13.8061 132.088 13.8061 132.088C13.8061 132.088 21.5884 120.212 18.3415 118.129C15.0945 116.046 13.2651 131.253 13.2651 131.253C13.2651 131.253 13.461 115.398 9.68138 116.826C5.90171 118.254 11.9182 131.969 11.9182 131.969C11.9182 131.969 6.90945 117 3.79876 118.411C0.688075 119.821 10.9919 132.609 10.9919 132.609C10.9919 132.609 0.0155416 119.838 -1.93527 123.245C-3.88609 126.653 10.6899 134.324 10.6899 134.324C10.6899 134.324 -5.56911 126.628 -5.26645 131.831C-4.96379 137.034 10.7489 135.567 10.7489 135.567C10.7489 135.567 -5.22979 138.215 -4.32489 141.758C-3.41999 145.301 11.8285 136.785 11.8285 136.785C11.8285 136.785 -1.55924 144.175 -0.40796 147.685C0.743325 151.194 11.9489 137.574 11.9489 137.574C11.9489 137.574 4.03735 150.306 7.61506 152.12C11.1928 153.934 13.4721 138.622 13.4721 138.622Z" fill="#FFF5F6"/>
<path d="M12.0349 135.22C12.0349 135.22 7.44925 135.567 7.61448 133.392C7.7797 131.217 12.6475 134.458 12.4219 134.428C12.1962 134.398 8.71219 132.175 10.1888 129.888C11.6655 127.602 12.9191 134.02 12.9191 134.02C12.9191 134.02 11.964 131.007 13.8025 129.599C15.6411 128.191 13.5775 133.999 13.5775 133.999C13.5775 133.999 14.4185 130.529 16.5862 130.97C18.7538 131.412 13.8318 134.231 13.8318 134.231C13.8318 134.231 18.2337 132.385 18.5289 134.58C18.8241 136.775 13.835 134.969 13.835 134.969C13.835 134.969 17.6834 135.902 16.7958 137.752C15.9082 139.602 13.6667 135.488 13.6667 135.488C13.6667 135.488 15.2688 139.469 13.3727 139.206C11.4766 138.943 13.0282 135.955 13.0282 135.955C13.0282 135.955 10.451 140.167 9.01607 138.316C7.58116 136.465 12.0349 135.22 12.0349 135.22Z" fill="#F63D68"/>
<path d="M-4.03888 157.852C-3.61126 158.686 -3.17999 159.532 -2.71945 160.349C-2.52159 160.78 -2.1996 161.143 -1.79459 161.391C-1.54606 161.529 -1.26049 161.585 -0.978103 161.553C-0.695715 161.52 -0.430748 161.399 -0.220535 161.208C-0.0374511 161.024 0.0997305 160.8 0.179876 160.553C0.260022 160.306 0.280873 160.044 0.240732 159.788C0.161783 159.371 0.00330564 158.973 -0.226048 158.616C-0.63194 157.861 -1.10004 157.14 -1.62549 156.463C-2.24255 155.681 -3.02894 155.05 -3.92537 154.617C-4.07083 154.566 -4.22836 154.562 -4.37635 154.604C-4.52434 154.647 -4.65556 154.734 -4.75201 154.854C-4.85144 154.971 -4.91478 155.115 -4.93435 155.267C-4.95393 155.42 -4.92891 155.574 -4.86232 155.713C-4.1605 157.437 -3.09303 158.989 -1.73354 160.261C-1.59068 160.387 -1.40678 160.457 -1.21624 160.457C-1.0257 160.457 -0.841585 160.388 -0.698328 160.263C-0.555072 160.137 -0.462492 159.963 -0.437907 159.774C-0.413321 159.586 -0.458417 159.394 -0.564754 159.236L-1.18809 158.582C-1.33018 158.444 -1.51959 158.364 -1.71804 158.36C-1.9165 158.355 -2.10923 158.426 -2.2573 158.559C-2.40536 158.691 -2.49774 158.874 -2.51576 159.072C-2.53378 159.27 -2.47611 159.467 -2.3544 159.624L-1.73461 160.276L-0.564754 159.236C-1.84066 158.064 -2.83311 156.617 -3.4669 155.005L-4.405 156.105C-4.52922 156.064 -4.25922 156.187 -4.23553 156.199C-4.14423 156.256 -4.05647 156.312 -3.96632 156.373C-3.87743 156.43 -3.79149 156.492 -3.70883 156.559C-3.68399 156.567 -3.4689 156.762 -3.55683 156.683C-3.25994 156.955 -2.98612 157.251 -2.73819 157.568C-2.67262 157.656 -2.60589 157.741 -2.54387 157.828L-2.42337 158C-2.29807 158.182 -2.18219 158.369 -2.06985 158.555C-1.8607 158.901 -1.6574 159.254 -1.46821 159.613C-1.42269 159.703 -1.37717 159.792 -1.3375 159.887C-1.3856 159.77 -1.30342 160.024 -1.29845 160.057C-1.32206 159.9 -1.34804 160.21 -1.31114 160.096C-1.29268 160.039 -1.29614 160.05 -1.32036 160.124C-1.27263 160.038 -1.28923 160.029 -1.32036 160.124C-1.25713 160.059 -1.25713 160.059 -1.32036 160.124C-1.28608 160.09 -1.24295 160.066 -1.1958 160.055C-1.15374 160.045 -1.10943 160.048 -1.06945 160.065C-0.987821 160.091 -0.984272 160.092 -1.06945 160.065C-0.966078 160.157 -1.17415 159.952 -1.19323 159.926C-1.21231 159.901 -1.2588 159.838 -1.22065 159.89C-1.24931 159.845 -1.27797 159.801 -1.30193 159.754C-1.77924 158.904 -2.21309 158.029 -2.67044 157.167C-2.76575 156.98 -2.93148 156.838 -3.13115 156.773C-3.33083 156.708 -3.5481 156.725 -3.73516 156.821C-3.92223 156.916 -4.06377 157.082 -4.12865 157.281C-4.19353 157.481 -4.17643 157.698 -4.08111 157.885L-4.03888 157.852Z" fill="#FFE4E8"/>
<path d="M28.7312 51.731C28.7312 51.731 29.8861 57.0993 37.638 58.4306C37.638 58.4306 38.8692 54.7104 40.8312 53.4563C42.7932 52.2022 40.3939 43.0434 31.91 45.7518C31.91 45.7518 39.0434 46.3466 40.9799 40.2484C40.9799 40.2484 41.2159 37.9428 42.051 36.9519C42.8862 35.9609 34.4287 29.6882 30.2979 36.5567C30.2979 36.5567 30.9557 32.2268 27.6057 29.3142C27.6057 29.3142 26.2212 28.5834 26.2878 26.2227C26.2878 26.2227 13.6326 33.4229 21.5989 40.3077C21.5989 40.3077 17.2765 37.8057 14.4205 39.5747C14.4205 39.5747 10.0328 41.8274 8.9634 41.199C8.9634 41.199 10.5582 51.8306 21.7734 47.264C21.7734 47.264 16.8067 48.9353 16.9953 53.8997C17.184 58.8642 23.2657 58.3381 23.4419 60.6203C23.4419 60.6203 29.5908 57.524 28.7312 51.731Z" fill="#F63D68"/>
<path d="M24.5929 45.457C24.5929 45.457 22.5871 46.7306 23.4538 47.81C24.3204 48.8894 25.5119 47.355 25.5119 47.355C25.5119 47.355 24.0404 48.9558 25.6009 49.7325C27.1615 50.5093 27.0304 48.2267 27.0304 48.2267C27.0304 48.2267 27.0397 50.3423 28.45 49.4371C29.8604 48.5319 28.491 47.409 28.491 47.409C28.491 47.409 30.4713 48.427 30.3986 46.7141C30.3259 45.0011 28.723 44.4354 28.4064 45.3176C28.4064 45.3176 31.1901 44.2781 29.7115 43.1684C28.2329 42.0587 27.3854 44.2405 27.3854 44.2405C27.3854 44.2405 28.9729 42.0407 27.8762 41.3697C26.7795 40.6987 25.0816 43.0537 26.1555 43.8409C26.1555 43.8409 24.8564 41.441 24.0764 42.7121C23.2963 43.9831 23.0737 45.2331 24.5929 45.457Z" fill="#FFF5F6"/>
<path d="M-12.6406 29.1528C-12.3348 29.2967 -9.55211 33.1805 -5.10054 31.9738C-0.648965 30.7671 9.19221 28.8699 11.3888 30.8119C11.3888 30.8119 4.68057 25.5449 -6.46308 27.5792C-6.46308 27.5792 -3.51894 27.8827 2.07736 24.2835C7.67367 20.6843 11.613 22.5616 11.613 22.5616C11.613 22.5616 -0.813972 17.4107 -7.2025 23.6765C-7.2025 23.6765 1.29998 15.2329 6.98562 17.0803C6.98562 17.0803 -5.38732 12.4255 -12.319 24.76L-12.6406 29.1528Z" fill="#FFE4E8"/>
<path d="M-13.243 28.586C-13.243 28.586 -23.6873 34.0981 -22.6431 27.2869C-21.5989 20.4757 1.0828 5.14349 1.0828 5.14349C1.0828 5.14349 4.07055 5.31276 3.69307 7.77645C3.69307 7.77645 -12.2522 16.6516 -19.4634 26.2829C-20.5775 27.5647 -21.1071 28.8064 -18.6693 28.1216C-16.2315 27.4369 -13.416 26.6745 -13.416 26.6745C-13.416 26.6745 -12.8849 24.7542 -11.9411 24.5562C-10.9973 24.3582 -11.1221 26.3066 -11.7955 26.5405C-11.7955 26.5405 -10.7586 27.1409 -11.5536 27.9661C-11.6963 28.2908 -10.0288 30.3651 -11.9025 29.7934L-13.243 28.586Z" fill="#C01048"/>
<path d="M-30.3466 51.5322C-30.3466 51.5322 -34.4487 75.7745 -20.3898 73.009C-6.3309 70.2434 9.82982 64.0644 3.60278 52.3023C-2.62426 40.5403 -25.0696 33.9026 -30.3466 51.5322Z" fill="#F63D68"/>
<path d="M-21.8394 54.2964C-21.8394 54.2964 -24.8727 64.6465 -18.8698 63.2108C-12.8669 61.7751 -2.32819 61.8131 -4.66209 55.9538C-6.99598 50.0946 -17.8206 44.7294 -21.8394 54.2964Z" fill="#FFF5F6"/>
<path d="M4.03954 97.9031L13.499 107.351L7.18943 96.0809L19.7247 99.3226L8.62073 93.3487L21.8325 87.3862L8.38086 90.569L12.4307 78.2525L5.18209 88.8023L1.7557 74.7839L1.2787 88.2694L-13.9215 84.0659L-0.490274 91.6473L-14.401 95.9479L0.44936 94.6103L-8.77539 104.526L0.89712 97.8572L0.869363 107.66L4.03954 97.9031Z" fill="#C01048"/>
<path d="M-17.3748 126.164C-17.3748 126.164 -8.35907 130.635 -6.49065 126.479C-4.62223 122.323 -10.6906 122.136 -10.6906 122.136C-10.6906 122.136 -2.59547 123.632 -2.59358 119.219C-2.59168 114.805 -8.25644 116.951 -8.25644 116.951C-8.25644 116.951 -0.616229 114.643 -4.09039 111.544C-7.56456 108.446 -10.4556 113.6 -10.4556 113.6C-10.4556 113.6 -7.36164 107.193 -11.4833 108.032C-15.605 108.87 -14.94 110.966 -14.94 110.966C-14.94 110.966 -14.3732 107.434 -17.6525 107.31C-20.9318 107.186 -23.6705 113.285 -23.6705 113.285C-23.6705 113.285 -22.8486 123.471 -17.3748 126.164Z" fill="#F63D68"/>
</g>
</svg>
