<svg width="55" height="123" viewBox="0 0 55 123" fill="none" xmlns="http://www.w3.org/2000/svg">
<g opacity="0.3">
<path d="M-15.0254 55.2831C-15.0254 55.2831 -42.0524 20.3402 -46.475 30.0218C-50.8976 39.7034 -17.3445 61.3613 -17.3445 61.3613C-17.3445 61.3613 -48.1961 50.0332 -49.2987 60.8798C-50.4013 71.7263 -18.7071 64.3375 -18.7071 64.3375C-18.7071 64.3375 -58.4058 67.1131 -51.0856 78.0785C-43.7654 89.0438 -15.1487 68.1195 -15.1487 68.1195C-15.1487 68.1195 -40.6279 92.1252 -34.1958 99.2998C-27.7638 106.474 -10.2472 71.9052 -10.2472 71.9052C-10.2472 71.9052 -24.6549 105.239 -13.2308 109.374C-1.80674 113.51 -5.25618 70.2836 -5.25618 70.2836C-5.25618 70.2836 -3.38427 109.084 7.15242 108.473C17.6891 107.862 -2.71615 71.2618 -2.71615 71.2618C-2.71615 71.2618 22.3475 106.671 28.4166 97.4311C34.4857 88.1914 -0.886059 67.511 -0.886059 67.511C-0.886059 67.511 34.2715 92.5873 38.8889 84.4634C43.5063 76.3395 0.133689 64.6032 0.133689 64.6032C0.133689 64.6032 44.9677 75.2205 43.8057 64.5408C42.6437 53.8611 -1.95507 60.3222 -1.95507 60.3222C-1.95507 60.3222 46.4092 51.2099 37.3718 40.1798C28.3344 29.1497 -4.08523 57.665 -4.08523 57.665C-4.08523 57.665 27.024 26.108 19.3236 19.7213C11.6232 13.3345 -8.43347 56.7053 -8.43347 56.7053C-8.43347 56.7053 9.31501 18.8187 1.12348 12.9029C-7.06805 6.98706 -9.96824 55.1536 -9.96824 55.1536C-9.96824 55.1536 -12.9316 14.2491 -23.7675 15.9879C-34.6033 17.7266 -15.0254 55.2831 -15.0254 55.2831Z" fill="#FFF5F6"/>
<path d="M-6.37361 60.5017C-6.37361 60.5017 3.21935 52.3607 6.35138 57.4407C9.48341 62.5206 -6.50367 63.1741 -5.95577 62.878C-5.40787 62.5819 5.87843 61.8991 6.28692 69.3347C6.69541 76.7703 -6.40133 64.5794 -6.40133 64.5794C-6.40133 64.5794 0.559536 69.7142 -1.24621 75.7866C-3.05196 81.8591 -7.82391 65.6857 -7.82391 65.6857C-7.82391 65.6857 -4.1052 74.7188 -9.61306 77.2277C-15.1209 79.7366 -8.75944 65.5818 -8.75944 65.5818C-8.75944 65.5818 -15.5341 76.7469 -19.7175 72.3628C-23.9009 67.9788 -9.95461 63.9519 -9.95461 63.9519C-9.95461 63.9519 -19.9723 68.0764 -20.983 62.5541C-21.9936 57.0318 -10.4152 62.5342 -10.4152 62.5342C-10.4152 62.5342 -20.364 56.2983 -15.7443 53.8311C-11.1247 51.3639 -9.75385 60.4728 -9.75385 60.4728C-9.75385 60.4728 -10.8236 47.0042 -4.67037 48.7944C1.48288 50.5847 -6.37361 60.5017 -6.37361 60.5017Z" fill="#F63D68"/>
</g>
</svg>
