<svg width="80" height="188" viewBox="0 0 80 188" fill="none" xmlns="http://www.w3.org/2000/svg">
<g opacity="0.2">
<path d="M28.6009 65.2694C28.6009 65.2694 18.7224 52.4976 17.1059 56.0362C15.4894 59.5749 27.7532 67.491 27.7532 67.491C27.7532 67.491 16.4769 63.3505 16.0738 67.315C15.6708 71.2794 27.2552 68.5788 27.2552 68.5788C27.2552 68.5788 12.7452 69.5933 15.4207 73.6012C18.0963 77.6091 28.5558 69.9611 28.5558 69.9611C28.5558 69.9611 19.2431 78.7354 21.594 81.3577C23.9449 83.9801 30.3474 71.3448 30.3474 71.3448C30.3474 71.3448 25.0813 83.5284 29.2568 85.04C33.4324 86.5515 32.1716 70.7521 32.1716 70.7521C32.1716 70.7521 32.8558 84.934 36.707 84.7107C40.5582 84.4873 33.1 71.1097 33.1 71.1097C33.1 71.1097 42.2609 84.0518 44.4792 80.6747C46.6974 77.2975 33.7689 69.7387 33.7689 69.7387C33.7689 69.7387 46.6192 78.9042 48.3068 75.9349C49.9945 72.9656 34.1416 68.6759 34.1416 68.6759C34.1416 68.6759 50.5287 72.5566 50.104 68.6531C49.6792 64.7496 33.3782 67.1112 33.3782 67.1112C33.3782 67.1112 51.0555 63.7806 47.7523 59.749C44.4491 55.7175 32.5996 66.1399 32.5996 66.1399C32.5996 66.1399 43.9702 54.6057 41.1556 52.2713C38.3411 49.937 31.0103 65.7892 31.0103 65.7892C31.0103 65.7892 37.4974 51.9415 34.5034 49.7792C31.5093 47.6169 30.4493 65.222 30.4493 65.222C30.4493 65.222 29.3662 50.2713 25.4056 50.9068C21.4451 51.5423 28.6009 65.2694 28.6009 65.2694Z" fill="#FFF5F6"/>
<path d="M31.7632 67.1768C31.7632 67.1768 35.2695 64.2012 36.4142 66.0579C37.559 67.9147 31.7156 68.1536 31.9159 68.0453C32.1162 67.9371 36.2414 67.6875 36.3907 70.4053C36.54 73.123 31.7531 68.6672 31.7531 68.6672C31.7531 68.6672 34.2973 70.544 33.6373 72.7635C32.9773 74.983 31.2331 69.0716 31.2331 69.0716C31.2331 69.0716 32.5923 72.3732 30.5792 73.2902C28.566 74.2072 30.8912 69.0336 30.8912 69.0336C30.8912 69.0336 28.415 73.1145 26.8859 71.5121C25.3569 69.9097 30.4543 68.4378 30.4543 68.4378C30.4543 68.4378 26.7928 69.9454 26.4234 67.9269C26.054 65.9085 30.2859 67.9197 30.2859 67.9197C30.2859 67.9197 26.6496 65.6404 28.3381 64.7386C30.0266 63.8369 30.5277 67.1662 30.5277 67.1662C30.5277 67.1662 30.1367 62.2434 32.3857 62.8977C34.6348 63.552 31.7632 67.1768 31.7632 67.1768Z" fill="#F63D68"/>
<path d="M52.2113 30.6104C51.5969 30.1456 50.9397 29.7403 50.2485 29.4C49.5841 29.0394 48.871 28.7768 48.1314 28.6204C47.2698 28.4805 46.3192 28.7188 45.9937 29.625C45.72 30.3888 46.1462 31.1449 46.7229 31.652C47.3324 32.1157 48.0235 32.4608 48.7603 32.6694C49.4556 32.9146 50.1752 33.0847 50.9066 33.1766C51.6187 33.267 52.3597 33.2892 52.9347 32.7884C53.1075 32.6465 53.2363 32.4584 53.3063 32.246C53.3762 32.0336 53.3843 31.8057 53.3297 31.5889C53.1917 31.1968 52.9162 30.8681 52.5543 30.6637C51.2082 29.7096 49.5715 29.2548 47.9262 29.3777C47.8164 29.3695 47.706 29.3847 47.6025 29.4223C47.499 29.4598 47.4046 29.5189 47.3255 29.5956C47.2464 29.6723 47.1845 29.7648 47.1438 29.8672C47.1031 29.9695 47.0845 30.0793 47.0893 30.1894C47.0941 30.2994 47.1221 30.4072 47.1716 30.5056C47.221 30.604 47.2907 30.6908 47.3762 30.7604C47.4616 30.8299 47.5608 30.8805 47.6672 30.909C47.7736 30.9374 47.8848 30.943 47.9935 30.9253C48.2531 30.9069 48.5136 30.9021 48.7737 30.9112C48.8374 30.914 48.8975 30.918 48.9624 30.9244C48.8055 30.9126 49.052 30.9345 49.0603 30.9358C49.1994 30.9533 49.3361 30.9756 49.4728 30.9979C49.9611 31.0708 50.4353 31.2185 50.8786 31.4358C51.1048 31.5471 51.3237 31.6725 51.5342 31.8113C51.425 31.7408 51.56 31.8304 51.5858 31.8495L51.736 31.9615L51.8005 32.0151C51.8638 32.077 51.8791 32.0877 51.8475 32.0509C51.8191 32.0601 51.7952 31.7932 51.8 31.772C51.8049 31.7508 51.9338 31.5559 51.8887 31.598C51.8435 31.6402 52.0618 31.4908 51.9206 31.5877C52.0945 31.5312 51.7795 31.6845 51.9206 31.5877C51.8851 31.5992 51.8496 31.6107 51.8142 31.6223C51.7787 31.6338 51.5909 31.6477 51.7893 31.6303C51.7538 31.6419 51.7183 31.6534 51.6748 31.6401C51.6312 31.6268 51.5615 31.6416 51.5036 31.6447C51.6748 31.6401 51.4223 31.6358 51.4057 31.6333C50.2574 31.527 49.1396 31.2046 48.111 30.6831L47.9923 30.6196C47.9923 30.6196 47.7939 30.4801 47.9277 30.5779C47.8335 30.5105 47.7449 30.4356 47.6627 30.354L47.5643 30.2565C47.686 30.3896 47.5539 30.2245 47.5459 30.1997L47.4794 30.0918C47.5808 30.259 47.469 30.0598 47.4506 30.0031C47.5152 30.2018 47.4725 30.0705 47.4633 30.0421L47.4567 30.1306C47.4774 30.0493 47.4714 30.0551 47.4354 30.1375L47.4642 30.081C47.4189 30.1429 47.4141 30.1523 47.4498 30.1093L47.4782 30.1C47.4069 30.1585 47.4116 30.1609 47.4782 30.1L47.4072 30.1231C47.4379 30.1092 47.47 30.0988 47.503 30.092C47.5989 30.0608 47.3473 30.0837 47.5385 30.0804C47.614 30.0834 47.6861 30.0757 47.7627 30.0821C47.6295 30.0705 47.8357 30.1016 47.8605 30.1053C48.4549 30.2415 49.0275 30.4595 49.562 30.7531C50.1204 31.0262 50.6518 31.3515 51.149 31.7246C51.2161 31.8185 51.303 31.8964 51.4037 31.9527C51.5044 32.0091 51.6162 32.0426 51.7313 32.0507C51.8464 32.0588 51.9619 32.0415 52.0695 31.9998C52.1771 31.9581 52.2742 31.8933 52.3538 31.8097C52.4334 31.7262 52.4936 31.6262 52.5301 31.5167C52.5665 31.4073 52.5784 31.2911 52.5648 31.1765C52.5512 31.062 52.5124 30.9518 52.4513 30.8539C52.3902 30.7561 52.3082 30.6729 52.2113 30.6104Z" fill="#FFE4E8"/>
<path d="M55.2447 37.386C54.6183 37.1076 53.9668 36.8896 53.2989 36.7351C52.6427 36.5873 51.8826 36.4459 51.2918 36.8615C50.5396 37.3963 50.6666 38.3791 51.251 38.97C51.7355 39.3886 52.3067 39.6948 52.9235 39.8666C53.5531 40.1009 54.2005 40.2842 54.8594 40.4147C55.1446 40.4712 55.4287 40.5123 55.7094 40.5309C56.0589 40.5889 56.4134 40.6117 56.7675 40.5992C57.4996 40.5339 58.2383 40.0781 58.1938 39.2529C58.1493 38.4276 57.3617 38.0322 56.7135 37.7523C55.3984 37.1676 53.9467 36.9601 52.5204 37.1529C52.336 37.1882 52.1705 37.2886 52.0539 37.4358C51.9373 37.583 51.8774 37.7671 51.8851 37.9547C51.8928 38.1423 51.9676 38.3209 52.096 38.458C52.2243 38.5951 52.3975 38.6816 52.5842 38.7016C53.0466 38.6436 53.5136 38.6325 53.9782 38.6686C54.0243 38.6536 54.0855 38.6729 54.1386 38.6792C54.0336 38.6702 54.1634 38.6712 54.1776 38.6665C54.2837 38.6791 54.3899 38.6918 54.4983 38.7115C54.7423 38.7499 54.9826 38.8013 55.2205 38.8692C55.6182 38.9717 56.0025 39.1208 56.3654 39.3133L56.5452 39.4079C56.5452 39.4079 56.6674 39.482 56.5899 39.4248C56.6291 39.4638 56.6711 39.5 56.7154 39.5331C56.647 39.5161 56.6243 39.2527 56.625 39.3153C56.6327 39.2142 56.6732 39.1184 56.7403 39.0424C56.7081 39.0882 56.6418 39.1136 56.7723 39.032C56.8042 39.0216 56.9391 38.9778 56.8042 39.0216C56.7794 39.0297 56.6103 39.065 56.7226 39.0482C56.8348 39.0313 56.5715 39.0541 56.5361 39.0538C56.5007 39.0535 56.4536 39.0414 56.4074 39.0564L56.2954 39.0496C56.1267 39.0377 55.8367 39.0025 55.6221 38.9702C55.137 38.8938 54.657 38.7877 54.1848 38.6524C53.75 38.53 53.3248 38.3757 52.9126 38.1908C52.8115 38.1452 52.7068 38.1007 52.6116 38.0493C52.5666 38.0289 52.5234 38.0049 52.4823 37.9775C52.581 38.0396 52.4823 37.9775 52.4754 37.9562C52.4685 37.9349 52.2243 37.7631 52.3464 37.849C52.1903 37.7428 52.389 37.8351 52.3464 37.849C52.3222 37.7745 52.3199 37.7674 52.3395 37.8277C52.349 37.8676 52.3491 37.9093 52.3397 37.9492C52.3308 37.9911 52.3128 38.0304 52.2869 38.0645C52.2655 38.095 52.1162 38.167 52.2014 38.1394C52.0858 38.1338 52.2866 38.1117 52.2014 38.1394C52.317 38.145 52.3242 38.1309 52.3844 38.1349C52.2616 38.1316 52.3844 38.1349 52.4021 38.1291C52.4198 38.1233 52.5671 38.1539 52.6472 38.1711C52.7274 38.1882 52.9076 38.2238 53.0349 38.2531C53.307 38.3177 53.5779 38.3906 53.8415 38.4775C54.1052 38.5645 54.2887 38.6461 54.5605 38.758C54.7479 38.8514 54.9645 38.8675 55.1636 38.8028C55.3627 38.7381 55.5285 38.5977 55.6252 38.412C55.6725 38.3194 55.701 38.2184 55.7092 38.1147C55.7174 38.0111 55.7051 37.9068 55.6729 37.8079C55.6408 37.709 55.5895 37.6175 55.5219 37.5384C55.4544 37.4594 55.3719 37.3944 55.2792 37.3473L55.2447 37.386Z" fill="#FFE4E8"/>
<path d="M47.0141 36.8467C45.6946 35.9006 44.1918 35.2409 42.6023 34.9097C41.7822 34.7406 40.4818 34.4215 40.1021 35.463C39.7514 36.4245 40.7249 37.0656 41.4263 37.4734C42.824 38.2687 44.3814 38.7425 45.9851 38.8604C46.7895 38.9208 47.9697 39.0631 48.367 38.1846C48.463 37.9436 48.4819 37.6787 48.421 37.4265C48.3602 37.1743 48.2226 36.9472 48.0272 36.7765C47.7072 36.4965 47.3272 36.2938 46.9165 36.1839C45.0984 35.5458 43.1806 35.2387 41.2541 35.2771C41.0468 35.289 40.8525 35.382 40.7131 35.5359C40.5738 35.6898 40.5005 35.8924 40.5092 36.0999C40.5226 36.3061 40.6155 36.499 40.7683 36.6381C40.9211 36.7773 41.1218 36.8518 41.3284 36.846C42.6191 36.8222 43.9073 36.9697 45.1592 37.2846C45.7532 37.3937 46.3306 37.5794 46.8768 37.8369C46.7758 37.7795 46.9096 37.8655 46.9319 37.8857C46.9542 37.906 46.9256 37.7818 46.9635 37.9226C46.9223 37.7838 46.9206 37.6362 46.9585 37.4965C47.0379 37.2941 47.3294 37.2975 47.131 37.3149C46.8304 37.3358 46.5287 37.3355 46.2282 37.3139C45.0911 37.2417 43.9767 36.9629 42.9396 36.4912C42.6797 36.3677 42.4222 36.2395 42.1708 36.0936C41.9357 35.9905 41.7219 35.8444 41.5403 35.6628C41.6257 35.7685 41.5403 35.6628 41.5346 35.645L41.5576 35.716C41.628 35.9325 41.5204 36.1205 41.2643 36.2743L41.2465 36.2801C41.2004 36.2951 41.2217 36.2882 41.3196 36.2877C41.2324 36.2729 41.4187 36.3027 41.434 36.3016C41.7535 36.343 42.0682 36.3937 42.3851 36.4634C43.6649 36.7387 44.8774 37.265 45.9526 38.0117C46.111 38.1492 46.3167 38.2197 46.5261 38.2081C46.7355 38.1964 46.9321 38.1036 47.0742 37.9494C47.211 37.7945 47.281 37.5918 47.2691 37.3855C47.2572 37.1792 47.1643 36.986 47.0106 36.8478L47.0141 36.8467Z" fill="#FFE4E8"/>
<path d="M55.9224 44.3384C54.4756 43.2432 52.918 42.3027 51.2752 41.5322C50.8399 41.2993 50.3682 41.1421 49.8803 41.0673C49.5928 41.0528 49.3092 41.1392 49.0787 41.3116C48.8481 41.4839 48.685 41.7314 48.6174 42.0112C48.3306 43.1089 49.3889 43.7695 50.1591 44.2805C51.6268 45.2429 53.2291 45.9825 54.9137 46.475C55.3409 46.6349 55.7906 46.7271 56.2463 46.7483C56.5256 46.7511 56.7974 46.6577 57.016 46.4838C57.2345 46.3098 57.3866 46.066 57.4466 45.7932C57.6248 44.8682 56.6177 44.1478 55.9757 43.6815C54.3475 42.5468 52.4713 41.9048 50.6135 41.3313C50.4114 41.2881 50.2004 41.3265 50.0265 41.4382C49.8526 41.5498 49.7298 41.7256 49.6849 41.9273C49.6447 42.1297 49.6844 42.3398 49.7958 42.5136C49.9071 42.6873 50.0814 42.8113 50.282 42.8594C51.5578 43.2325 52.7978 43.7185 53.9872 44.3119C54.5383 44.5994 55.0547 44.949 55.5264 45.3538C55.6486 45.4527 55.7645 45.5592 55.8733 45.6727L55.8848 45.7082C55.8404 45.6559 55.8438 45.6666 55.8964 45.7437C55.8733 45.6565 55.8854 45.5638 55.9302 45.4855L55.9832 45.3466C56.2813 45.2498 56.3382 45.2077 56.154 45.2205C56.2105 45.2492 56.0927 45.2129 56.0845 45.2117C55.8915 45.1744 55.7011 45.1248 55.5144 45.0634C54.1948 44.696 52.9271 44.1626 51.7419 43.4758C51.197 43.1563 50.6731 42.8023 50.1733 42.416C50.0911 42.3564 50.0806 42.348 50.1204 42.3861C49.9692 42.2469 50.1551 42.3238 50.1123 42.3612C50.0696 42.3987 50.1469 42.4677 49.9726 42.5832C49.65 42.7979 49.6848 42.5669 49.8281 42.6577C49.9533 42.7164 50.0832 42.7647 50.2164 42.8022C50.407 42.8816 50.5987 42.9644 50.7833 43.0496C52.2198 43.7378 53.5865 44.5631 54.8643 45.514C55.0212 45.6462 55.2227 45.7136 55.4276 45.7025C55.6325 45.6913 55.8254 45.6024 55.967 45.4539C56.1038 45.2983 56.1737 45.0949 56.1616 44.8881C56.1494 44.6812 56.0563 44.4875 55.9022 44.3488L55.9224 44.3384Z" fill="#FFE4E8"/>
<path d="M63.1582 44.2906C62.1866 43.6592 61.0971 43.231 59.9555 43.0319C59.7873 42.9981 59.6126 43.0197 59.4576 43.0934C59.3026 43.1671 59.1756 43.289 59.0957 43.4408C58.5646 44.5355 59.5733 45.5025 60.3855 46.094C61.1782 46.6744 62.0759 47.0956 63.0289 47.3343C63.4952 47.4442 63.9709 47.5091 64.4495 47.528C64.9803 47.5557 65.6092 47.5711 66.0345 47.2014C66.6033 46.7301 66.4969 45.9799 66.0394 45.4655C65.6674 45.1139 65.2165 44.8567 64.7246 44.7156C63.5118 44.2438 62.2994 43.7849 61.0873 43.3391C60.8997 43.2466 60.6835 43.2311 60.4846 43.2957C60.2857 43.3603 60.12 43.5 60.0226 43.685C59.9281 43.8723 59.9115 44.0892 59.9763 44.2886C60.0411 44.4881 60.1821 44.6538 60.3685 44.7498C61.2594 45.0763 62.1218 45.4121 62.9973 45.7516L64.28 46.2216C64.46 46.2925 64.6329 46.3776 64.807 46.4427C64.7191 46.3653 64.9094 46.4801 64.807 46.4427L64.8714 46.5081C64.9032 46.5344 64.9334 46.5626 64.9617 46.5926C64.8985 46.5189 64.8868 46.507 64.9171 46.5521C64.9475 46.5972 64.9287 46.5876 64.9091 46.5273C64.8845 46.343 64.8477 46.2176 64.9905 46.0535C65.0235 46.0155 65.065 45.9859 65.1116 45.9671C65.2109 45.9348 65.1826 45.944 65.1116 45.9671C64.9227 45.9774 64.7267 45.9901 64.5485 45.9852C64.4683 45.9799 64.3857 45.9793 64.3008 45.9715C64.3008 45.9715 64.1357 45.9585 64.2289 45.9674L64.1617 45.9539C63.9746 45.9336 63.7884 45.9039 63.603 45.8647C63.4176 45.8256 63.2468 45.783 63.0906 45.7369C63.0117 45.7116 62.934 45.6897 62.854 45.6608C62.774 45.6319 62.7881 45.6391 62.7528 45.627C62.9046 45.6836 62.6892 45.6005 62.6798 45.5957C62.3538 45.462 62.0392 45.3018 61.7394 45.1166L61.6208 45.0413L61.5268 44.9816C61.5937 45.0305 61.4974 44.9637 61.4927 44.9613L61.3484 44.8552C61.1912 44.7336 61.0364 44.6073 60.891 44.474C60.8125 44.4015 60.7435 44.3219 60.6626 44.254C60.5817 44.1861 60.7303 44.3536 60.6626 44.254L60.5633 44.1175C60.5377 44.0823 60.5151 44.045 60.4957 44.0061C60.5165 44.07 60.5257 44.0984 60.4957 44.0061C60.4484 43.8606 60.4957 44.0061 60.5038 44.0309L60.4914 44.1134C60.5109 44.0286 60.5109 44.0286 60.4914 44.1134L59.6279 44.5235C59.8833 44.5663 60.1362 44.6229 60.3855 44.6932C60.5103 44.7272 60.6363 44.7648 60.7587 44.8035C60.7587 44.8035 60.9847 44.8831 60.8647 44.8397C60.9223 44.8602 60.9847 44.8831 61.0447 44.9107C61.5375 45.103 62.0101 45.3437 62.4554 45.6294C62.5479 45.6772 62.6489 45.7062 62.7527 45.7146C62.8565 45.7231 62.9609 45.7108 63.0599 45.6787C63.1589 45.6465 63.2506 45.595 63.3296 45.5272C63.4086 45.4593 63.4733 45.3765 63.5201 45.2835C63.6135 45.0961 63.6296 44.8795 63.5649 44.6804C63.5002 44.4812 63.3599 44.3155 63.1741 44.2188L63.1582 44.2906Z" fill="#FFE4E8"/>
<path d="M42.7658 40.3889C40.8604 39.8624 38.915 39.4932 36.9492 39.285C36.7472 39.2486 36.5388 39.2899 36.3659 39.4006C36.193 39.5114 36.0684 39.6834 36.0171 39.8822C35.686 40.904 36.8364 41.4013 37.5714 41.7314C38.4387 42.1062 39.312 42.4633 40.1914 42.8028C41.943 43.484 43.7151 44.1076 45.5078 44.6735C45.7102 44.7137 45.9203 44.6739 46.0941 44.5626C46.2678 44.4513 46.3917 44.277 46.4399 44.0763C46.919 42.6768 45.4762 41.5212 44.3876 40.9724C43.2316 40.3877 41.9283 40.1585 40.6422 40.3138C40.4368 40.3279 40.2446 40.4204 40.1055 40.5722C39.9664 40.7241 39.891 40.9236 39.8949 41.1295C39.9065 41.3364 39.9989 41.5304 40.1521 41.6699C40.3053 41.8095 40.5071 41.8833 40.7141 41.8756C41.6159 41.7496 42.5349 41.8699 43.3738 42.2239C43.9008 42.445 45.1508 43.0434 44.9118 43.7449L45.8392 43.1454C44.3487 42.6762 42.8598 42.1515 41.416 41.6083C40.6853 41.3278 39.9558 41.0391 39.237 40.7468C38.8746 40.5978 38.5158 40.4475 38.1594 40.2926C37.9901 40.2181 37.8194 40.1519 37.6502 40.0657C37.288 39.893 37.6403 39.9629 37.5521 40.2349L36.6249 40.8108C38.589 41.0191 40.5327 41.3875 42.4368 41.9123C42.5386 41.9388 42.6447 41.9444 42.7487 41.9288C42.8527 41.9132 42.9524 41.8768 43.042 41.8216C43.1315 41.7665 43.209 41.6938 43.2697 41.608C43.3305 41.5221 43.3732 41.4249 43.3954 41.3221C43.4176 41.2193 43.4188 41.1131 43.3989 41.0099C43.379 40.9066 43.3384 40.8084 43.2796 40.7213C43.2208 40.6341 43.145 40.5597 43.0567 40.5026C42.9684 40.4455 42.8695 40.4068 42.7658 40.3889Z" fill="#FFE4E8"/>
<path d="M34.0259 30.916C32.953 30.587 31.8571 30.3385 30.7473 30.1724C29.6838 29.9886 28.6055 29.9042 27.5263 29.9202C26.6658 29.9526 25.5222 30.4302 25.5451 31.4547C25.5747 32.681 26.977 32.9513 27.908 33.2805C29.0301 33.6667 30.1575 34.0328 31.2901 34.3789C31.8129 34.5387 32.3333 34.6913 32.8538 34.844C33.3901 35.0247 33.9373 35.172 34.4919 35.2848C35.0013 35.3973 35.5343 35.3217 35.9923 35.0719C36.2478 34.9021 36.4435 34.6561 36.5516 34.3689C36.6596 34.0817 36.6747 33.7678 36.5945 33.4716C36.3678 32.5564 35.47 31.8947 34.7124 31.4228C33.7983 30.8649 32.7691 30.5225 31.7029 30.4216C30.6368 30.3206 29.5616 30.4638 28.559 30.8403C28.383 30.9018 28.2346 31.0242 28.1407 31.1853C28.0467 31.3465 28.0133 31.5358 28.0465 31.7194C28.0796 31.9029 28.1772 32.0686 28.3216 32.1867C28.466 32.3048 28.6478 32.3675 28.8342 32.3635C30.2287 32.4123 31.613 32.6208 32.9599 32.9849L33.2913 31.4568C31.6218 31.2616 29.9453 31.1419 28.2621 31.0977C28.0777 31.133 27.9121 31.2334 27.7955 31.3806C27.6789 31.5278 27.619 31.7119 27.6267 31.8995C27.6344 32.0871 27.7093 32.2657 27.8376 32.4028C27.9659 32.5399 28.1391 32.6263 28.3258 32.6464C29.8762 32.6842 31.4166 32.7879 32.9553 32.9707C33.1517 32.9993 33.3517 32.9524 33.5148 32.8392C33.678 32.7261 33.7921 32.5553 33.8342 32.3613C33.8762 32.1673 33.8431 31.9646 33.7415 31.7941C33.6399 31.6236 33.4774 31.498 33.2867 31.4426C31.8075 31.052 30.2882 30.8333 28.7589 30.7911L29.0388 32.3167C30.2992 31.8314 31.6941 31.8264 32.958 32.3028C33.5999 32.5464 34.1895 32.9102 34.6953 33.3745C34.8403 33.5157 34.9661 33.6754 35.0693 33.8494C35.0589 33.8175 35.1619 33.7722 35.1018 33.7682C34.9254 33.7658 34.7498 33.7467 34.577 33.7112C32.8359 33.3038 31.1151 32.7172 29.4259 32.1556C28.9902 32.0225 28.5819 31.8766 28.1617 31.7306L27.5296 31.5122C27.4225 31.4725 27.1242 31.279 27.0203 31.2853C27.0842 31.2646 27.0589 31.4886 27.0737 31.5583C27.0885 31.6281 26.9769 31.5623 27.0545 31.6077C27.0545 31.6077 27.0935 31.5951 27.1503 31.5766C27.4112 31.4925 27.6868 31.4645 27.9593 31.4942C29.9022 31.5541 31.8282 31.876 33.685 32.4511C33.8873 32.4957 34.0991 32.4581 34.2736 32.3465C34.4482 32.235 34.5713 32.0586 34.6159 31.8563C34.6605 31.654 34.6229 31.4423 34.5113 31.2677C34.3998 31.0931 34.2234 30.97 34.0211 30.9254L34.0259 30.916Z" fill="#FFE4E8"/>
<path d="M37.6992 26.6424C36.05 25.5404 34.116 24.9418 32.1327 24.9196C31.2206 24.9021 29.9743 24.9186 29.4928 25.8519C29.0113 26.7853 29.8166 27.8146 30.6641 28.2494C31.602 28.6837 32.5811 29.0228 33.5867 29.2617C34.5792 29.5245 35.5882 29.721 36.6068 29.8499C37.1149 29.9163 37.6291 29.965 38.1422 29.9984C38.6553 30.0318 39.3672 30.1458 39.8245 29.7539C40.0232 29.5763 40.1519 29.3336 40.1877 29.0696C40.2234 28.8055 40.1638 28.5374 40.0195 28.3133C39.7451 27.912 39.3698 27.5901 38.9315 27.3798C37.0289 26.2489 34.8359 25.7021 32.6251 25.8073C32.488 25.816 32.3555 25.8602 32.2406 25.9357C32.1258 26.0111 32.0326 26.1152 31.9702 26.2377C31.9078 26.3601 31.8784 26.4967 31.8849 26.6339C31.8913 26.7712 31.9334 26.9044 32.007 27.0205C32.1732 27.2986 32.4318 27.5096 32.7376 27.6167C33.0435 27.7238 33.3772 27.7203 33.6806 27.6067C34.6122 27.2373 34.1361 25.7479 33.1975 26.1196C32.9561 26.198 33.2684 26.0966 33.3174 26.1748L32.6981 27.3845C34.1563 27.302 35.6144 27.5499 36.9634 28.1096C37.2851 28.2526 37.599 28.4126 37.9039 28.5887C38.153 28.7275 38.4463 28.954 38.6437 29.0664L38.6564 29.1054C38.5542 28.8875 38.6608 28.6842 38.9785 28.4907C38.897 28.4822 38.815 28.48 38.7331 28.4841C38.555 28.4792 38.3792 28.4696 38.1987 28.4576C37.7988 28.4345 37.3943 28.3972 36.9864 28.3493C35.3912 28.1502 33.8226 27.777 32.3086 27.2363C31.972 27.1144 31.6442 26.9691 31.3277 26.8017C31.2004 26.7406 31.0838 26.6592 30.9826 26.5607C30.8983 26.4704 30.8374 26.2587 30.8801 26.5351C30.9016 26.6616 30.6743 26.602 30.8882 26.56C31.0229 26.5398 31.126 26.4827 31.2592 26.4943C31.6476 26.458 32.0381 26.4492 32.4278 26.4678C34.0641 26.5534 35.6435 27.0966 36.9864 28.0354C37.079 28.0826 37.1801 28.1112 37.2837 28.1194C37.3874 28.1276 37.4916 28.1152 37.5905 28.0831C37.6894 28.051 37.781 27.9997 37.86 27.9321C37.939 27.8646 38.004 27.7821 38.0511 27.6894C38.1436 27.5019 38.1592 27.2856 38.0946 27.0868C38.0299 26.8879 37.8902 26.7221 37.7052 26.6247L37.6992 26.6424Z" fill="#FFE4E8"/>
<path d="M46.3889 47.0594C45.5433 46.4141 44.5969 45.9129 43.588 45.5759C43.4523 45.5421 43.3098 45.5471 43.1767 45.5903C43.0437 45.6335 42.9255 45.7133 42.8356 45.8204C42.2814 46.5302 42.5663 47.4068 43.2302 47.9405C43.8877 48.385 44.6158 48.7149 45.3835 48.9163C46.9068 49.4303 48.4887 49.7508 50.092 49.8702C50.2466 49.8623 50.3955 49.8089 50.5198 49.7165C50.644 49.6242 50.7382 49.4971 50.7903 49.3513C50.8424 49.2055 50.8502 49.0475 50.8126 48.8973C50.775 48.7471 50.6938 48.6114 50.5791 48.5073C48.8511 46.9864 46.6572 46.0984 44.3578 45.9889C44.1519 46.0002 43.9586 46.0919 43.8195 46.2442C43.6804 46.3965 43.6066 46.5973 43.6141 46.8035C43.6272 47.0092 43.7195 47.2019 43.8715 47.3412C44.0236 47.4805 44.2236 47.5556 44.4297 47.5508C44.633 47.5598 44.8357 47.5791 45.0371 47.6085C45.2882 47.6446 45.5427 47.6914 45.7948 47.7547C46.2431 47.8544 46.6819 47.9927 47.1063 48.1682C47.9985 48.527 48.821 49.0393 49.5364 49.6819L50.0224 48.3154C48.7763 48.2078 47.5451 47.9686 46.3494 47.6019C45.7728 47.4263 45.2069 47.2171 44.6548 46.9754C44.5362 46.9258 44.4207 46.869 44.3091 46.8052C44.2421 46.7681 44.3665 46.8611 44.2634 46.773L44.1297 46.6516C44.0652 46.598 44.1597 46.7439 44.1182 46.6161C44.109 46.5877 43.9907 46.4653 44.0715 46.5449C44.0888 46.5982 44.1524 46.6246 44.0715 46.5449L44.1004 46.6337C44.1005 46.7168 44.0747 46.7978 44.0266 46.8656L43.2742 47.1101C44.025 47.3756 44.7312 47.7533 45.3687 48.2305C45.5252 48.3636 45.7268 48.4316 45.932 48.4204C46.1371 48.4092 46.3302 48.3198 46.4713 48.1705C46.6081 48.0156 46.6782 47.8129 46.6662 47.6066C46.6543 47.4003 46.5614 47.2071 46.4077 47.0689L46.3889 47.0594Z" fill="#FFE4E8"/>
<path d="M31.4643 39.4193C30.6285 38.9964 29.7821 38.5651 28.9295 38.1751C28.5157 37.9423 28.042 37.838 27.5687 37.8757C27.2865 37.9101 27.0222 38.0322 26.8131 38.2247C26.6039 38.4173 26.4604 38.6706 26.4029 38.949C26.3627 39.2052 26.3836 39.4673 26.4637 39.714C26.5439 39.9606 26.681 40.1849 26.8641 40.3686C27.1731 40.6595 27.5351 40.8883 27.9306 41.0423C28.703 41.4149 29.5051 41.7226 30.3286 41.9621C31.2872 42.2316 32.2944 42.28 33.2743 42.1037C33.4217 42.059 33.5516 41.9699 33.6464 41.8485C33.7411 41.7271 33.7959 41.5794 33.8034 41.4256C33.815 41.2723 33.7819 41.119 33.7082 40.9842C33.6344 40.8494 33.5232 40.7389 33.3879 40.666C31.8065 39.6834 30.0309 39.0555 28.1834 38.8256C27.9937 38.8076 27.804 38.8593 27.6497 38.971C27.4953 39.0828 27.387 39.2469 27.345 39.4328C27.3029 39.6186 27.33 39.8134 27.4212 39.9807C27.5123 40.148 27.6613 40.2764 27.8403 40.3418L28.7289 40.5043C28.9253 40.5329 29.1253 40.486 29.2884 40.3729C29.4515 40.2597 29.5657 40.0889 29.6077 39.8949C29.6498 39.701 29.6167 39.4982 29.5151 39.3277C29.4135 39.1572 29.2509 39.0316 29.0603 38.9762L28.1752 38.8126L27.8403 40.3418C29.5613 40.5399 31.2147 41.1271 32.6751 42.059L32.7876 40.6177C32.9118 40.5774 32.621 40.6365 32.595 40.6411C32.4876 40.6485 32.3837 40.6548 32.2751 40.6587C32.1694 40.6644 32.0634 40.6648 31.9576 40.6598C31.9328 40.6679 31.6439 40.6362 31.7618 40.6489C31.3616 40.6032 30.9659 40.5244 30.5788 40.4133C30.474 40.3807 30.3704 40.3516 30.2691 40.3178L30.0702 40.249C29.8619 40.1754 29.6584 40.0924 29.4584 40.0083C29.0855 39.8509 28.7138 39.6852 28.3494 39.5054C28.26 39.4599 28.1707 39.4144 28.0826 39.3606C28.1906 39.4275 27.9747 39.2701 27.9513 39.2463C28.0625 39.3593 27.9017 39.0937 27.9386 39.2073C27.957 39.2641 27.9536 39.2534 27.9294 39.1789C27.9416 39.2769 27.9605 39.2747 27.9294 39.1789C27.9169 39.2693 27.9169 39.2693 27.9294 39.1789C27.9218 39.2267 27.901 39.2715 27.8694 39.3082C27.8415 39.3414 27.8037 39.3647 27.7615 39.3747C27.6799 39.4012 27.6763 39.4024 27.7615 39.3747C27.6235 39.3607 27.9123 39.4042 27.9429 39.4138C27.9735 39.4235 28.0477 39.4465 27.9865 39.4271C28.0359 39.4464 28.0853 39.4657 28.1323 39.4896C29.0179 39.8964 29.883 40.349 30.7601 40.7782C30.9472 40.8735 31.1644 40.8906 31.3641 40.8257C31.5638 40.7608 31.7295 40.6193 31.8248 40.4322C31.9201 40.2452 31.9372 40.0279 31.8724 39.8282C31.8075 39.6286 31.6659 39.4628 31.4789 39.3675L31.4643 39.4193Z" fill="#FFE4E8"/>
<path d="M67.3294 144.535C67.3294 144.535 63.2397 140.871 56.1857 144.35C56.1857 144.35 57.3763 148.084 56.5262 150.251C55.6761 152.419 63.0005 158.418 68.2722 151.241C68.2722 151.241 62.1515 154.952 64.1693 161.024C64.1693 161.024 65.3336 163.028 65.2404 164.321C65.1472 165.613 75.6764 165.717 74.9811 157.732C74.9811 157.732 76.9941 161.622 81.4163 162.009C81.4163 162.009 82.9659 161.786 84.2996 163.735C84.2996 163.735 90.3057 150.472 79.814 149.584C79.814 149.584 84.7815 149.068 86.0523 145.958C86.0523 145.958 88.278 141.556 89.5125 141.436C89.5125 141.436 81.9731 133.772 75.584 144.059C75.584 144.059 78.6198 139.788 75.5492 135.882C72.4785 131.977 67.8676 135.977 66.3836 134.234C66.3836 134.234 63.2289 140.354 67.3294 144.535Z" fill="#F63D68"/>
<path d="M74.3652 147.178C74.3652 147.178 75.2392 144.969 73.9036 144.605C72.5681 144.241 72.506 146.183 72.506 146.183C72.506 146.183 72.7556 144.023 71.0365 144.312C69.3174 144.601 70.7652 146.37 70.7652 146.37C70.7652 146.37 69.5141 144.664 68.9052 146.225C68.2962 147.787 70.0642 147.89 70.0642 147.89C70.0642 147.89 67.8637 148.231 68.9293 149.574C69.995 150.917 71.6243 150.432 71.3619 149.532C71.3619 149.532 69.7208 152.01 71.5693 152.038C73.4178 152.067 72.821 149.804 72.821 149.804C72.821 149.804 72.8297 152.517 74.1114 152.415C75.393 152.313 75.3824 149.41 74.0508 149.404C74.0508 149.404 76.5125 150.582 76.3964 149.095C76.2804 147.608 75.7258 146.466 74.3652 147.178Z" fill="#FFF5F6"/>
<path d="M115.241 109.971C115.241 109.971 104.31 87.9471 94.5621 98.4481C84.8138 108.949 75.3714 123.447 87.3228 129.303C99.2741 135.158 121.334 127.335 115.241 109.971Z" fill="#F63D68"/>
<path d="M60.166 92.6674L46.9596 90.5838L58.6887 95.993L46.6421 100.738L59.1367 99.0447L51.9528 111.634L60.9646 101.153L64.9277 113.497L64.5909 100.702L75.6027 110.029L68.0621 98.8384L82.83 93.3047L67.5077 95.0659L76.2339 83.4101L65.0059 93.221L66.6406 79.7768L62.7352 90.8575L56.9958 82.9106L60.166 92.6674Z" fill="#C01048"/>
<path d="M95.5751 75.1938C95.2501 73.5921 93.3518 73.679 93.3518 73.679L94.7466 73.372C94.7466 73.372 98.4532 75.2781 97.5003 73.6294C96.5473 71.9807 92.9282 73.5055 92.9282 73.5055C92.9282 73.5055 96.2662 71.786 95.0919 71.5306C93.9175 71.2751 92.3254 73.6153 92.3254 73.6153C91.1659 73.8276 90.0434 74.0981 88.9837 74.4109C90.1868 73.5249 92.8124 71.4361 91.4579 71.5542C89.9823 71.6808 88.26 74.6255 88.26 74.6255C87.1393 74.967 86.0908 75.3402 85.1319 75.7183C86.4337 74.41 89.7215 70.9782 88.0912 71.2972C86.3212 71.6457 84.7197 74.7232 84.0632 76.1516C83.8004 76.26 83.5409 76.3729 83.2831 76.4879C81.5459 77.2595 80.2984 77.9447 79.7796 78.2392C80.0318 77.2513 80.3429 76.2795 80.7112 75.3288C83.3511 74.7175 86.159 72.4225 84.3574 72.2125C83.1751 72.0699 82.1357 72.8531 81.4643 73.5486C82.1277 72.1208 82.8807 70.7364 83.7188 69.4037C85.1091 69.045 89.332 67.8782 88.0048 66.9491C86.9527 66.2157 85.4013 67.371 84.4859 68.2227C85.3316 66.9584 86.1792 65.8339 86.9453 64.8846C87.5503 64.7732 91.6668 63.9725 90.4534 63.2401C89.6952 62.7779 88.6716 63.2392 87.9287 63.7026C89.0823 62.3441 89.8872 61.5652 89.8872 61.5652C89.8872 61.5652 94.6134 60.0055 93.5678 58.7917C92.5223 57.578 89.8385 60.9611 89.8385 60.9611C88.9913 61.7753 88.2051 62.5882 87.4712 63.3927C88.4166 61.447 90.1531 57.465 88.4128 58.0495C86.4184 58.7221 86.682 63.0676 86.7824 64.1702C85.666 65.4491 84.6217 66.7893 83.6544 68.1844C84.0633 66.0434 85.2477 59.0978 83.1384 60.5047C80.6565 62.1579 83.0106 69.1588 83.0106 69.1588C81.9848 70.7318 81.0717 72.3754 80.278 74.0773C80.4844 72.1476 80.8516 66.8789 78.6378 67.6307C75.9287 68.5387 79.666 75.4687 79.666 75.4687C78.3301 78.725 78.0515 80.8195 78.0515 80.8195C78.8287 81.1743 79.3613 80.1529 79.3613 80.1529C79.4074 79.8666 79.4596 79.5793 79.5173 79.2946C81.2808 78.0815 83.1714 77.0645 85.1557 76.2619C85.5802 76.5828 89.7165 79.6671 89.8423 77.6534C89.9707 75.5378 86.2707 75.8213 86.2569 75.8214C86.9898 75.5413 87.7134 75.2854 88.4161 75.0521C89.4675 75.4415 93.7472 76.9605 92.844 75.4052C92.2777 74.4298 91.2116 74.3546 90.3744 74.4825L92.5433 73.8817C92.5433 73.8817 95.9017 76.7977 95.5751 75.1938Z" fill="#F63D68"/>
<path d="M60.8794 57.2171C60.8794 57.2171 50.9573 58.899 51.8888 63.3598C52.8202 67.8206 57.8392 64.4045 57.8392 64.4045C57.8392 64.4045 50.4106 67.9522 53.0034 71.524C55.5961 75.0958 58.9176 70.03 58.9176 70.03C58.9176 70.03 54.0934 76.3884 58.7254 76.8531C63.3573 77.3179 62.6667 71.4486 62.6667 71.4486C62.6667 71.4486 63.9293 78.4504 66.771 75.3494C69.6126 72.2484 67.8429 70.9439 67.8429 70.9439C67.8429 70.9439 69.4602 74.1342 72.186 72.3069C74.9118 70.4795 73.5429 63.936 73.5429 63.936C73.5429 63.936 66.8906 56.1782 60.8794 57.2171Z" fill="#F63D68"/>
<path d="M80.0771 45.2455L76.961 46.258L68.6933 57.2706C68.6933 57.2706 58.4841 55.8832 57.561 59.1769C56.638 62.4707 65.185 60.9766 65.185 60.9766C65.185 60.9766 60.2665 62.6611 61.1966 65.439C62.1267 68.217 69.5453 69.3968 68.8387 63.2973C68.8387 63.2973 69.2715 69.0973 71.7864 68.9276C74.3013 68.7579 75.2684 65.7323 71.2618 59.2101L81.6855 45.2566L80.0771 45.2455Z" fill="#89123E"/>
<path d="M72.709 3.43927C72.709 3.43927 56.9117 7.06148 58.4416 10.7196C59.9716 14.3778 73.5427 8.33598 75.2079 11.1301C76.873 13.9243 55.2408 16.2053 54.1634 19.9298C53.086 23.6543 60.6486 22.9824 69.1329 20.2688C77.6173 17.5552 80.9294 21.1915 77.1173 23.105C73.3051 25.0186 57.4094 26.5264 58.553 31.1812C59.6966 35.836 78.0444 25.9585 79.8995 28.9146C81.7546 31.8707 73.1122 33.1799 70.7674 35.9625C68.4227 38.7451 69.3142 41.0059 76.7821 38.654C84.25 36.3021 90.793 35.7652 87.7239 25.7759C84.6547 15.7866 82.6896 1.98562 72.709 3.43927Z" fill="#FFF5F6"/>
</g>
</svg>
