<svg width="56" height="129" viewBox="0 0 56 129" fill="none" xmlns="http://www.w3.org/2000/svg">
<path opacity="0.2" d="M56.0002 0.162598L58.0346 50.5507C58.1417 53.2028 61.3867 54.4196 63.2111 52.4918L94.9935 18.9078L65.1616 56.9342C63.6634 58.8439 64.9353 61.6496 67.3591 61.7815L111.145 64.1626L67.3591 66.5437C64.9353 66.6756 63.6634 69.4813 65.1616 71.391L94.9935 109.417L63.2111 75.8334C61.3867 73.9056 58.1417 75.1224 58.0346 77.7745L56.0002 128.163L53.9659 77.7745C53.8588 75.1224 50.6138 73.9056 48.7894 75.8334L17.007 109.417L46.8389 71.391C48.3371 69.4813 47.0651 66.6756 44.6414 66.5437L0.855469 64.1626L44.6414 61.7815C47.0651 61.6496 48.3371 58.8439 46.8389 56.9342L17.007 18.9078L48.7894 52.4918C50.6138 54.4196 53.8588 53.2028 53.9659 50.5507L56.0002 0.162598Z" fill="#FEA3B4"/>
</svg>
