<svg width="45" height="46" viewBox="0 0 45 46" fill="none" xmlns="http://www.w3.org/2000/svg">
<path d="M37.4348 13.0671C40.2701 13.0671 42.5686 10.7686 42.5686 7.93334C42.5686 5.09803 40.2701 2.79956 37.4348 2.79956C34.5995 2.79956 32.301 5.09803 32.301 7.93334C32.301 10.7686 34.5995 13.0671 37.4348 13.0671Z" fill="white"/>
<path d="M35.6426 15.6807C32.7116 15.046 30.3221 12.6564 29.6874 9.72552C29.4447 8.58676 29.426 7.48533 29.6314 6.4399C29.8741 5.28247 29.0153 4.19971 27.8205 4.19971H13.1659C8.01348 4.19971 3.83179 8.3814 3.83179 13.5339V26.5083C3.83179 31.6608 8.01348 35.8425 13.1659 35.8425H15.9662C16.4889 35.8425 17.1609 36.1785 17.4596 36.5892L20.2599 40.3042C21.492 41.947 23.5082 41.947 24.7403 40.3042L27.5405 36.5892C27.8952 36.1225 28.4366 35.8425 29.034 35.8425H31.8529C37.0053 35.8425 41.1684 31.6794 41.1684 26.527V17.5475C41.1684 16.3714 40.0856 15.5127 38.9282 15.7367C37.8827 15.9234 36.7813 15.9234 35.6426 15.6807ZM15.0328 22.868C13.9873 22.868 13.1659 22.0279 13.1659 21.0012C13.1659 19.9744 13.9873 19.1343 15.0328 19.1343C16.0595 19.1343 16.8996 19.9744 16.8996 21.0012C16.8996 22.0279 16.0782 22.868 15.0328 22.868ZM22.5001 22.868C21.4547 22.868 20.6332 22.0279 20.6332 21.0012C20.6332 19.9744 21.4547 19.1343 22.5001 19.1343C23.5268 19.1343 24.3669 19.9744 24.3669 21.0012C24.3669 22.0279 23.5455 22.868 22.5001 22.868ZM29.9674 22.868C28.922 22.868 28.1006 22.0279 28.1006 21.0012C28.1006 19.9744 28.922 19.1343 29.9674 19.1343C30.9942 19.1343 31.8342 19.9744 31.8342 21.0012C31.8342 22.0279 31.0128 22.868 29.9674 22.868Z" fill="white"/>
</svg>
