<svg width="51" height="52" viewBox="0 0 51 52" fill="none" xmlns="http://www.w3.org/2000/svg">
<path d="M34.4038 4.95166H16.5962C8.86125 4.95166 4.25 9.56291 4.25 17.2979V35.0842C4.25 42.8404 8.86125 47.4517 16.5962 47.4517H34.3825C42.1175 47.4517 46.7287 42.8404 46.7287 35.1054V17.2979C46.75 9.56291 42.1388 4.95166 34.4038 4.95166ZM35.6575 21.3142L23.6087 33.3629C23.3112 33.6604 22.9075 33.8304 22.4825 33.8304C22.0575 33.8304 21.6537 33.6604 21.3563 33.3629L15.3425 27.3492C14.7262 26.7329 14.7262 25.7129 15.3425 25.0967C15.9587 24.4804 16.9787 24.4804 17.595 25.0967L22.4825 29.9842L33.405 19.0617C34.0212 18.4454 35.0413 18.4454 35.6575 19.0617C36.2738 19.6779 36.2738 20.6767 35.6575 21.3142Z" fill="white"/>
</svg>
