<svg width="25" height="24" viewBox="0 0 25 24" fill="none" xmlns="http://www.w3.org/2000/svg">
<path d="M9.40998 20.67C9.21998 20.67 9.02998 20.6 8.87998 20.45C8.58998 20.16 8.58998 19.68 8.87998 19.39L15.4 12.87C15.88 12.39 15.88 11.61 15.4 11.13L8.87998 4.61C8.58998 4.32 8.58998 3.84 8.87998 3.55C9.16998 3.26 9.64998 3.26 9.93998 3.55L16.46 10.07C16.97 10.58 17.26 11.27 17.26 12C17.26 12.73 16.98 13.42 16.46 13.93L9.93998 20.45C9.78998 20.59 9.59998 20.67 9.40998 20.67Z" fill="#1D2939"/>
</svg>
