<svg width="25" height="24" viewBox="0 0 25 24" fill="none" xmlns="http://www.w3.org/2000/svg">
<path d="M4.43 16.63C4.24 16.63 4.05 16.56 3.9 16.41C3.61 16.12 3.61 15.64 3.9 15.35L15.85 3.4C16.14 3.11 16.62 3.11 16.91 3.4C17.2 3.69 17.2 4.17 16.91 4.46L4.96 16.42C4.82 16.56 4.62 16.63 4.43 16.63Z" fill="#1D2939"/>
<path d="M11.6 19.03C11.41 19.03 11.22 18.96 11.07 18.81C10.78 18.52 10.78 18.04 11.07 17.75L12.27 16.55C12.56 16.26 13.04 16.26 13.33 16.55C13.62 16.84 13.62 17.32 13.33 17.61L12.13 18.81C11.99 18.95 11.8 19.03 11.6 19.03Z" fill="#1D2939"/>
<path d="M14.29 16.34C14.1 16.34 13.91 16.27 13.76 16.12C13.47 15.83 13.47 15.35 13.76 15.06L16.15 12.67C16.44 12.38 16.92 12.38 17.21 12.67C17.5 12.96 17.5 13.44 17.21 13.73L14.82 16.12C14.68 16.26 14.48 16.34 14.29 16.34Z" fill="#1D2939"/>
<path d="M11.6 22.75C10.62 22.75 9.64001 22.15 8.45001 20.96L3.54001 16.05C1.15001 13.66 1.16001 12.12 3.57001 9.71001L10.21 3.07001C12.62 0.660006 14.16 0.650006 16.55 3.04001L21.46 7.95001C23.85 10.34 23.84 11.88 21.43 14.29L14.79 20.93C13.58 22.14 12.59 22.75 11.6 22.75ZM13.4 2.75001C12.88 2.75001 12.22 3.18001 11.27 4.13001L4.63001 10.77C3.68001 11.72 3.25001 12.38 3.25001 12.89C3.25001 13.41 3.65001 14.04 4.60001 14.99L9.51001 19.9C10.46 20.85 11.08 21.25 11.6 21.25C11.6 21.25 11.6 21.25 11.61 21.25C12.13 21.25 12.78 20.82 13.73 19.87L20.37 13.23C21.32 12.28 21.75 11.62 21.75 11.11C21.75 10.59 21.35 9.96001 20.4 9.01001L15.49 4.10001C14.55 3.15001 13.92 2.75001 13.4 2.75001Z" fill="#1D2939"/>
<path d="M22.5 22.75H2.5C2.09 22.75 1.75 22.41 1.75 22C1.75 21.59 2.09 21.25 2.5 21.25H22.5C22.91 21.25 23.25 21.59 23.25 22C23.25 22.41 22.91 22.75 22.5 22.75Z" fill="#1D2939"/>
</svg>
