<svg width="25" height="24" viewBox="0 0 25 24" fill="none" xmlns="http://www.w3.org/2000/svg">
<path d="M14.1201 18.13H10.8901C7.76012 18.13 6.37012 16.74 6.37012 13.61V10.38C6.37012 7.25 7.76012 5.85999 10.8901 5.85999H14.1201C17.2501 5.85999 18.6401 7.25 18.6401 10.38V13.61C18.6301 16.74 17.2401 18.13 14.1201 18.13ZM10.8801 7.37C8.59012 7.37 7.86012 8.10001 7.86012 10.39V13.62C7.86012 15.91 8.59012 16.64 10.8801 16.64H14.1101C16.4001 16.64 17.1301 15.91 17.1301 13.62V10.39C17.1301 8.10001 16.4001 7.37 14.1101 7.37H10.8801Z" fill="#1D2939"/>
<path d="M18.73 13.52H17.88C17.47 13.52 17.13 13.18 17.13 12.77V10.39C17.13 8.10001 16.4 7.37 14.11 7.37H11.73C11.32 7.37 10.98 7.02999 10.98 6.62V5.76999C10.98 2.63999 12.37 1.25 15.5 1.25H18.73C21.86 1.25 23.25 2.63999 23.25 5.76999V9C23.25 12.13 21.86 13.52 18.73 13.52ZM18.63 12.02H18.73C21.02 12.02 21.75 11.29 21.75 9V5.76999C21.75 3.47999 21.02 2.75 18.73 2.75H15.5C13.21 2.75 12.48 3.47999 12.48 5.76999V5.87H14.11C17.24 5.87 18.63 7.26001 18.63 10.39V12.02Z" fill="#1D2939"/>
<path d="M9.5 22.75H6.27C3.14 22.75 1.75 21.36 1.75 18.23V15C1.75 11.87 3.14 10.48 6.27 10.48H7.12C7.53 10.48 7.87 10.82 7.87 11.23V13.61C7.87 15.9 8.6 16.63 10.89 16.63H13.27C13.68 16.63 14.02 16.97 14.02 17.38V18.23C14.02 21.36 12.63 22.75 9.5 22.75ZM6.27 11.98C3.98 11.98 3.25 12.71 3.25 15V18.23C3.25 20.52 3.98 21.25 6.27 21.25H9.5C11.79 21.25 12.52 20.52 12.52 18.23V18.13H10.89C7.76 18.13 6.37 16.74 6.37 13.61V11.98H6.27Z" fill="#1D2939"/>
</svg>
