<svg width="25" height="24" viewBox="0 0 25 24" fill="none" xmlns="http://www.w3.org/2000/svg">
<path d="M12.5 21.65C12.19 21.65 11.89 21.61 11.64 21.52C7.82 20.21 1.75 15.56 1.75 8.69001C1.75 5.19001 4.58 2.35001 8.06 2.35001C9.75 2.35001 11.33 3.01001 12.5 4.19001C13.67 3.01001 15.25 2.35001 16.94 2.35001C20.42 2.35001 23.25 5.20001 23.25 8.69001C23.25 15.57 17.18 20.21 13.36 21.52C13.11 21.61 12.81 21.65 12.5 21.65ZM8.06 3.85001C5.41 3.85001 3.25 6.02001 3.25 8.69001C3.25 15.52 9.82 19.32 12.13 20.11C12.31 20.17 12.7 20.17 12.88 20.11C15.18 19.32 21.76 15.53 21.76 8.69001C21.76 6.02001 19.6 3.85001 16.95 3.85001C15.43 3.85001 14.02 4.56001 13.11 5.79001C12.83 6.17001 12.19 6.17001 11.91 5.79001C10.98 4.55001 9.58 3.85001 8.06 3.85001Z" fill="#1D2939"/>
</svg>
