<svg width="25" height="24" viewBox="0 0 25 24" fill="none" xmlns="http://www.w3.org/2000/svg">
<path d="M15.5 22.75H9.5C4.07 22.75 1.75 20.43 1.75 15V9C1.75 3.57 4.07 1.25 9.5 1.25H15.5C20.93 1.25 23.25 3.57 23.25 9V15C23.25 20.43 20.93 22.75 15.5 22.75ZM9.5 2.75C4.89 2.75 3.25 4.39 3.25 9V15C3.25 19.61 4.89 21.25 9.5 21.25H15.5C20.11 21.25 21.75 19.61 21.75 15V9C21.75 4.39 20.11 2.75 15.5 2.75H9.5Z" fill="#1D2939"/>
<path d="M9.06976 16.02C8.87976 16.02 8.68977 15.95 8.53977 15.8C8.24977 15.51 8.24977 15.03 8.53977 14.74L15.0898 8.19003C15.3798 7.90003 15.8598 7.90003 16.1498 8.19003C16.4398 8.48003 16.4398 8.96003 16.1498 9.25003L9.59976 15.8C9.44976 15.95 9.25976 16.02 9.06976 16.02Z" fill="#1D2939"/>
<path d="M9.48001 11.11C8.39001 11.11 7.5 10.22 7.5 9.13004C7.5 8.04004 8.39001 7.15002 9.48001 7.15002C10.57 7.15002 11.46 8.04004 11.46 9.13004C11.46 10.22 10.57 11.11 9.48001 11.11ZM9.48001 8.66003C9.22001 8.66003 9 8.87005 9 9.14005C9 9.41005 9.21001 9.62003 9.48001 9.62003C9.75001 9.62003 9.95999 9.41005 9.95999 9.14005C9.95999 8.87005 9.74001 8.66003 9.48001 8.66003Z" fill="#1D2939"/>
<path d="M16.02 16.84C14.93 16.84 14.04 15.95 14.04 14.86C14.04 13.77 14.93 12.88 16.02 12.88C17.11 12.88 18 13.77 18 14.86C18 15.95 17.11 16.84 16.02 16.84ZM16.02 14.39C15.76 14.39 15.54 14.6 15.54 14.87C15.54 15.14 15.75 15.35 16.02 15.35C16.29 15.35 16.5 15.14 16.5 14.87C16.5 14.6 16.29 14.39 16.02 14.39Z" fill="#1D2939"/>
</svg>
