<svg width="19" height="19" viewBox="0 0 19 19" fill="none" xmlns="http://www.w3.org/2000/svg">
<path d="M13.6027 17.5025C13.2052 17.5025 12.6952 17.375 12.0577 17L9.81522 15.6725C9.58272 15.5375 9.13272 15.5375 8.90772 15.6725L6.65772 17C5.33022 17.7875 4.55022 17.4725 4.19772 17.2175C3.85272 16.9625 3.31272 16.31 3.66522 14.81L4.19772 12.5075C4.25772 12.2675 4.13772 11.855 3.95772 11.675L2.09772 9.81499C1.16772 8.88499 1.24272 8.08999 1.37022 7.69999C1.49772 7.30999 1.90272 6.61999 3.19272 6.40249L5.58522 6.00499C5.81022 5.96749 6.13272 5.72749 6.23022 5.52499L7.55772 2.87749C8.15772 1.66999 8.94522 1.48999 9.35772 1.48999C9.77022 1.48999 10.5577 1.66999 11.1577 2.87749L12.4777 5.51749C12.5827 5.71999 12.9052 5.95999 13.1302 5.99749L15.5227 6.39499C16.8202 6.61249 17.2252 7.30249 17.3452 7.69249C17.4652 8.08249 17.5402 8.87749 16.6177 9.80749L14.7577 11.675C14.5777 11.855 14.4652 12.26 14.5177 12.5075L15.0502 14.81C15.3952 16.31 14.8627 16.9625 14.5177 17.2175C14.3302 17.3525 14.0302 17.5025 13.6027 17.5025Z" fill="white"/>
</svg>
