<svg width="25" height="24" viewBox="0 0 25 24" fill="none" xmlns="http://www.w3.org/2000/svg">
<path d="M18.16 22.67C17.63 22.67 16.95 22.5 16.1 22L13.11 20.23C12.8 20.05 12.2 20.05 11.9 20.23L8.9 22C7.13 23.05 6.09 22.63 5.62 22.29C5.16 21.95 4.44 21.08 4.91 19.08L5.62 16.01C5.7 15.69 5.54 15.14 5.3 14.9L2.82 12.42C1.58 11.18 1.68 10.12 1.85 9.60001C2.02 9.08001 2.56 8.16001 4.28 7.87001L7.47 7.34001C7.77 7.29001 8.2 6.97001 8.33 6.70001L10.1 3.17001C10.9 1.56001 11.95 1.32001 12.5 1.32001C13.05 1.32001 14.1 1.56001 14.9 3.17001L16.66 6.69001C16.8 6.96001 17.23 7.28001 17.53 7.33001L20.72 7.86001C22.45 8.15001 22.99 9.07001 23.15 9.59001C23.31 10.11 23.41 11.17 22.18 12.41L19.7 14.9C19.46 15.14 19.31 15.68 19.38 16.01L20.09 19.08C20.55 21.08 19.84 21.95 19.38 22.29C19.13 22.47 18.73 22.67 18.16 22.67ZM12.5 18.59C12.99 18.59 13.48 18.71 13.87 18.94L16.86 20.71C17.73 21.23 18.28 21.23 18.49 21.08C18.7 20.93 18.85 20.4 18.63 19.42L17.92 16.35C17.73 15.52 18.04 14.45 18.64 13.84L21.12 11.36C21.61 10.87 21.83 10.39 21.73 10.06C21.62 9.73001 21.16 9.46001 20.48 9.35001L17.29 8.82001C16.52 8.69001 15.68 8.07001 15.33 7.37001L13.57 3.85001C13.25 3.21001 12.85 2.83001 12.5 2.83001C12.15 2.83001 11.75 3.21001 11.44 3.85001L9.67 7.37001C9.32 8.07001 8.48 8.69001 7.71 8.82001L4.53 9.35001C3.85 9.46001 3.39 9.73001 3.28 10.06C3.17 10.39 3.4 10.88 3.89 11.36L6.37 13.84C6.97 14.44 7.28 15.52 7.09 16.35L6.38 19.42C6.15 20.41 6.31 20.93 6.52 21.08C6.73 21.23 7.27 21.22 8.15 20.71L11.14 18.94C11.52 18.71 12.01 18.59 12.5 18.59Z" fill="#1D2939"/>
</svg>
