<svg width="16" height="17" viewBox="0 0 16 17" fill="none" xmlns="http://www.w3.org/2000/svg">
<path d="M11.8452 15.3262C11.5018 15.3262 11.0613 15.2161 10.5106 14.8922L8.57356 13.7455C8.37273 13.6289 7.98402 13.6289 7.78967 13.7455L5.84613 14.8922C4.69944 15.5724 4.02568 15.3003 3.72119 15.08C3.42318 14.8598 2.95673 14.2962 3.26122 13.0005L3.72119 11.0116C3.77302 10.8043 3.66936 10.4479 3.51388 10.2925L1.90722 8.68579C1.10389 7.88246 1.16867 7.19575 1.2788 6.85886C1.38894 6.52198 1.73878 5.92596 2.85307 5.73809L4.91971 5.39473C5.11406 5.36234 5.39263 5.15503 5.47685 4.98011L6.62354 2.69321C7.14182 1.65017 7.82206 1.49469 8.17838 1.49469C8.53469 1.49469 9.21493 1.65017 9.73321 2.69321L10.8734 4.97363C10.9641 5.14855 11.2427 5.35586 11.437 5.38825L13.5037 5.73161C14.6245 5.91949 14.9743 6.51551 15.0779 6.85239C15.1816 7.18927 15.2464 7.87598 14.4495 8.67932L12.8429 10.2925C12.6874 10.4479 12.5902 10.7978 12.6356 11.0116L13.0955 13.0005C13.3935 14.2962 12.9336 14.8598 12.6356 15.08C12.4736 15.1967 12.2145 15.3262 11.8452 15.3262Z" fill="#F79009"/>
</svg>
