<svg width="21" height="21" viewBox="0 0 21 21" fill="none" xmlns="http://www.w3.org/2000/svg">
<path d="M1.79429 8.92286C0.803025 9.91413 0.803025 11.5213 1.79429 12.5126L3.15363 13.8719V15.7943C3.15363 17.1962 4.29007 18.3326 5.69194 18.3326H7.61435L8.9737 19.692C9.96497 20.6832 11.5721 20.6832 12.5634 19.692L13.9227 18.3326H15.8451C17.247 18.3326 18.3835 17.1962 18.3835 15.7943V13.8719L19.7428 12.5126C20.7341 11.5213 20.7341 9.91412 19.7428 8.92286L18.3835 7.5635V5.6411C18.3835 4.23924 17.247 3.1028 15.8451 3.1028H13.9227L12.5634 1.74345C11.5721 0.752183 9.96497 0.752183 8.9737 1.74345L7.61435 3.1028H5.69194C4.29007 3.1028 3.15363 4.23924 3.15363 5.6411V7.56352L1.79429 8.92286Z" fill="#2E90FA"/>
<path d="M6.96108 10.7177L9.65359 13.4102L12.3455 10.7177L15.0373 8.0252" fill="#2E90FA"/>
<path d="M6.96108 10.7177L9.65359 13.4102L12.3455 10.7177L15.0373 8.0252M1.79429 12.5126C0.803025 11.5213 0.803025 9.91413 1.79429 8.92286L3.15363 7.56352V5.6411C3.15363 4.23924 4.29007 3.1028 5.69194 3.1028H7.61435L8.9737 1.74345C9.96497 0.752183 11.5721 0.752183 12.5634 1.74345L13.9227 3.1028H15.8451C17.247 3.1028 18.3835 4.23924 18.3835 5.6411V7.5635L19.7428 8.92286C20.7341 9.91412 20.7341 11.5213 19.7428 12.5126L18.3835 13.8719V15.7943C18.3835 17.1962 17.247 18.3326 15.8451 18.3326H13.9227L12.5634 19.692C11.5721 20.6832 9.96497 20.6832 8.9737 19.692L7.61435 18.3326H5.69194C4.29007 18.3326 3.15363 17.1962 3.15363 15.7943V13.8719L1.79429 12.5126Z" stroke="white" stroke-width="0.971771" stroke-linecap="round" stroke-linejoin="round"/>
</svg>
