<svg width="25" height="24" viewBox="0 0 25 24" fill="none" xmlns="http://www.w3.org/2000/svg">
<path d="M13.5 9.75H7.5C7.09 9.75 6.75 9.41 6.75 9C6.75 8.59 7.09 8.25 7.5 8.25H13.5C13.91 8.25 14.25 8.59 14.25 9C14.25 9.41 13.91 9.75 13.5 9.75Z" fill="#1D2939"/>
<path d="M19.5399 14.7999C18.0299 14.7999 16.7499 13.6799 16.6299 12.2399C16.5499 11.4099 16.8499 10.5999 17.4499 10.0099C17.9499 9.48995 18.6599 9.19995 19.4099 9.19995H21.4999C22.4899 9.22995 23.2499 10.0099 23.2499 10.9699V13.03C23.2499 13.99 22.4899 14.7699 21.5299 14.7999H19.5399ZM21.4699 10.7H19.4199C19.0699 10.7 18.7499 10.8299 18.5199 11.0699C18.2299 11.3499 18.0899 11.7299 18.1299 12.1099C18.1799 12.7699 18.8199 13.2999 19.5399 13.2999H21.4999C21.6299 13.2999 21.7499 13.18 21.7499 13.03V10.9699C21.7499 10.8199 21.6299 10.71 21.4699 10.7Z" fill="#1D2939"/>
<path d="M16.5 21.25H7.5C4.06 21.25 1.75 18.94 1.75 15.5V8.5C1.75 5.42 3.64998 3.19001 6.59998 2.82001C6.86998 2.78001 7.18 2.75 7.5 2.75H16.5C16.74 2.75 17.05 2.76 17.37 2.81C20.32 3.15 22.25 5.39 22.25 8.5V9.95001C22.25 10.36 21.91 10.7 21.5 10.7H19.42C19.07 10.7 18.75 10.83 18.52 11.07L18.51 11.08C18.23 11.35 18.1 11.72 18.13 12.1C18.18 12.76 18.82 13.29 19.54 13.29H21.5C21.91 13.29 22.25 13.63 22.25 14.04V15.49C22.25 18.94 19.94 21.25 16.5 21.25ZM7.5 4.25C7.26 4.25 7.02999 4.26999 6.79999 4.29999C4.59999 4.57999 3.25 6.18 3.25 8.5V15.5C3.25 18.08 4.92 19.75 7.5 19.75H16.5C19.08 19.75 20.75 18.08 20.75 15.5V14.8H19.54C18.03 14.8 16.75 13.68 16.63 12.24C16.55 11.42 16.85 10.6 17.45 10.02C17.97 9.49002 18.67 9.20001 19.42 9.20001H20.75V8.5C20.75 6.16 19.38 4.54998 17.16 4.28998C16.92 4.24998 16.71 4.25 16.5 4.25H7.5Z" fill="#1D2939"/>
</svg>
