<svg width="24" height="31" viewBox="0 0 24 31" fill="none" xmlns="http://www.w3.org/2000/svg">
<g clip-path="url(#clip0_545_2808)">
<path d="M20.0441 16.1007C20.0855 20.6406 23.9571 22.1514 24 22.1707C23.9673 22.2772 23.3814 24.3237 21.9602 26.4375C20.7317 28.2651 19.4567 30.0859 17.4482 30.1236C15.4746 30.1606 14.8399 28.9324 12.5836 28.9324C10.3279 28.9324 9.62277 30.0859 7.75454 30.1606C5.81578 30.2353 4.33944 28.1844 3.10073 26.3636C0.569559 22.639 -1.36478 15.8388 1.23255 11.2485C2.52284 8.96898 4.8287 7.52548 7.3315 7.48846C9.2353 7.4515 11.0323 8.7921 12.1961 8.7921C13.3592 8.7921 15.5429 7.17991 17.8385 7.41668C18.7996 7.45739 21.4972 7.8118 23.2294 10.3925C23.0899 10.4806 20.0106 12.3051 20.0441 16.1007ZM16.3349 4.95255C17.3642 3.68443 18.057 1.91909 17.868 0.162598C16.3843 0.223289 14.5903 1.16887 13.5261 2.43629C12.5724 3.55865 11.7371 5.35506 11.9625 7.07679C13.6162 7.20702 15.3056 6.22147 16.3349 4.95255Z" fill="black"/>
</g>
<defs>
<clipPath id="clip0_545_2808">
<rect width="24" height="30" fill="white" transform="translate(0 0.162598)"/>
</clipPath>
</defs>
</svg>
