<svg width="22" height="23" viewBox="0 0 22 23" fill="none" xmlns="http://www.w3.org/2000/svg">
<path d="M21.9895 11.3685C21.9895 10.4671 21.9146 9.8094 21.7526 9.12732H11.2191V13.1955H17.402C17.2774 14.2065 16.6043 15.729 15.1084 16.7521L15.0874 16.8883L18.4179 19.4093L18.6486 19.4318C20.7678 17.5195 21.9895 14.7058 21.9895 11.3685Z" fill="#4285F4"/>
<path d="M11.2191 22.0871C14.2482 22.0871 16.7912 21.1126 18.6486 19.4318L15.1084 16.7521C14.161 17.3976 12.8895 17.8483 11.2191 17.8483C8.25226 17.8483 5.73421 15.9361 4.83659 13.293L4.70502 13.3039L1.24191 15.9226L1.19662 16.0457C3.04153 19.6266 6.83112 22.0871 11.2191 22.0871Z" fill="#34A853"/>
<path d="M4.83665 13.2929C4.5998 12.6108 4.46273 11.88 4.46273 11.1248C4.46273 10.3696 4.5998 9.63881 4.82419 8.95673L4.81791 8.81146L1.31141 6.15063L1.19668 6.20396C0.436305 7.68996 0 9.35869 0 11.1248C0 12.8909 0.436305 14.5596 1.19668 16.0456L4.83665 13.2929Z" fill="#FBBC05"/>
<path d="M11.2191 4.40129C13.3258 4.40129 14.7468 5.29044 15.5571 6.03349L18.7234 3.01277C16.7788 1.24664 14.2482 0.162598 11.2191 0.162598C6.83112 0.162598 3.04153 2.62299 1.19662 6.20395L4.82413 8.95672C5.73421 6.31361 8.25227 4.40129 11.2191 4.40129Z" fill="#EB4335"/>
</svg>
