<svg width="55" height="126" viewBox="0 0 55 126" fill="none" xmlns="http://www.w3.org/2000/svg">
<path d="M0 0.162598L1.40226 47.1339C1.49176 50.132 5.43966 51.1575 6.97694 48.582L29.8135 10.3224L8.6589 51.6016C7.34708 54.1614 10.0408 56.9214 12.6317 55.6721L50.1615 37.576L12.794 59.2267C10.4118 60.6069 10.9913 64.1986 13.6867 64.7595L54.5835 73.2707L13.7015 68.1185C10.922 67.7682 9.22175 71.0809 11.1268 73.135L41.6756 106.074L10.3511 76.7132C8.19934 74.6964 4.73397 76.6694 5.3701 79.5491L15.5361 125.57L2.88454 81.2969C2.05556 78.3959 -2.05556 78.3959 -2.88454 81.2969L-15.5361 125.57L-5.37009 79.5491C-4.73397 76.6694 -8.19935 74.6964 -10.3511 76.7132L-41.6756 106.074L-11.1268 73.135C-9.22175 71.0809 -10.922 67.7682 -13.7015 68.1185L-54.5835 73.2707L-13.6867 64.7595C-10.9913 64.1986 -10.4118 60.6069 -12.794 59.2267L-50.1615 37.576L-12.6317 55.6721C-10.0408 56.9214 -7.34709 54.1614 -8.6589 51.6016L-29.8135 10.3224L-6.97694 48.582C-5.43966 51.1575 -1.49176 50.132 -1.40226 47.1339L0 0.162598Z" fill="#FFE4E8"/>
</svg>
