<svg width="61" height="247" viewBox="0 0 61 247" fill="none" xmlns="http://www.w3.org/2000/svg">
<path opacity="0.2" fill-rule="evenodd" clip-rule="evenodd" d="M138.055 0.514272C162.391 3.02633 157.687 45.5849 175.864 61.9602C188.62 73.4509 214.319 63.6428 223.926 77.8711C233.362 91.8464 221.044 110.613 220.084 127.449C219.187 143.174 220.202 158.213 218.451 173.866C215.678 198.646 231.659 247.946 206.768 246.463C171.735 244.377 173.079 171.29 138.055 169.078C106.229 167.068 105.821 234.146 74.1766 238.089C52.6286 240.774 58.1213 198.623 46.1061 180.535C32.9962 160.8 4.4308 150.843 0.681155 127.449C-3.03559 104.26 8.82286 77.9638 27.3536 63.5357C45.7655 49.2002 75.1737 65.2045 95.4524 53.6599C115.525 42.2324 115.079 -1.85733 138.055 0.514272Z" fill="#E31B54"/>
</svg>
