<svg width="57" height="174" viewBox="0 0 57 174" fill="none" xmlns="http://www.w3.org/2000/svg">
<path opacity="0.2" fill-rule="evenodd" clip-rule="evenodd" d="M-14.8694 7.97423C6.22596 11.3339 32.6118 3.11348 47.1994 18.718C60.8434 33.3131 58.5211 59.404 50.1811 77.5593C42.0941 95.1638 13.6961 94.7707 4.44399 111.792C-5.47567 130.041 18.7601 168.447 -1.56059 172.747C-25.7243 177.861 -31.9304 128.995 -56.2414 124.634C-74.6537 121.332 -83.8778 153.227 -102.531 154.637C-122.271 156.13 -149.866 150.886 -156.427 132.209C-163.501 112.071 -138.874 94.4858 -130.568 74.824C-125.535 62.9102 -127.379 47.0008 -117.109 39.1387C-106.623 31.1107 -89.8046 41.5401 -78.3986 34.8837C-66.6013 27.9989 -66.9712 7.86583 -54.3937 2.53831C-41.9359 -2.73852 -28.2303 5.84637 -14.8694 7.97423Z" fill="#FECDD6"/>
</svg>
