<svg width="47" height="107" viewBox="0 0 47 107" fill="none" xmlns="http://www.w3.org/2000/svg">
<path d="M57.9095 36.2301C57.9095 36.2301 62.2768 6.5813 48.7859 5.11441C35.295 3.64753 40.3513 21.0056 40.3513 21.0056C40.3513 21.0056 37.1397 -3.29794 24.6379 0.758215C12.1361 4.81437 23.4266 18.8831 23.4266 18.8831C23.4266 18.8831 9.85794 -0.630878 4.27934 12.0599C-1.29926 24.7506 15.9588 28.1956 15.9588 28.1956C15.9588 28.1956 -5.03313 25.3285 1.13444 36.2301C7.30201 47.1317 12.625 43.32 12.625 43.32C12.625 43.32 2.10125 44.9647 4.7683 54.3661C7.43537 63.7675 27.2272 65.9123 27.2272 65.9123C27.2272 65.9123 55.3202 54.2105 57.9095 36.2301Z" fill="#F63D68"/>
<path d="M74.1487 101.617L74.1487 91.8603L50.5674 58.3109C50.5674 58.3109 63.8916 30.6735 55.4126 25.0282C46.9336 19.3829 43.2997 44.9645 43.2997 44.9645C43.2997 44.9645 43.0552 29.4844 34.3317 29.5622C25.6082 29.64 15.44 49.5652 33.3649 53.1768C33.3649 53.1768 16.5402 49.0651 14.7066 56.3439C12.873 63.6228 20.5519 69.1458 42.7107 63.8006L72.6373 106.162L74.1487 101.617Z" fill="#89123E"/>
</svg>
