<svg width="61" height="123" viewBox="0 0 61 123" fill="none" xmlns="http://www.w3.org/2000/svg">
<g opacity="0.8">
<path d="M-9.02551 55.2831C-9.02551 55.2831 -36.0525 20.3402 -40.4751 30.0218C-44.8977 39.7034 -11.3447 61.3613 -11.3447 61.3613C-11.3447 61.3613 -42.1962 50.0332 -43.2988 60.8798C-44.4014 71.7263 -12.7072 64.3375 -12.7072 64.3375C-12.7072 64.3375 -52.4059 67.1131 -45.0857 78.0785C-37.7655 89.0438 -9.14879 68.1195 -9.14879 68.1195C-9.14879 68.1195 -34.628 92.1252 -28.196 99.2998C-21.764 106.474 -4.24729 71.9052 -4.24729 71.9052C-4.24729 71.9052 -18.655 105.239 -7.23093 109.374C4.19314 113.51 0.743699 70.2836 0.743699 70.2836C0.743699 70.2836 2.61561 109.084 13.1523 108.473C23.689 107.862 3.28373 71.2618 3.28373 71.2618C3.28373 71.2618 28.3474 106.671 34.4165 97.4311C40.4856 88.1914 5.11382 67.511 5.11382 67.511C5.11382 67.511 40.2714 92.5873 44.8888 84.4634C49.5062 76.3395 6.13357 64.6032 6.13357 64.6032C6.13357 64.6032 50.9676 75.2205 49.8056 64.5408C48.6436 53.8611 4.0448 60.3222 4.0448 60.3222C4.0448 60.3222 52.409 51.2099 43.3717 40.1798C34.3343 29.1497 1.91465 57.665 1.91465 57.665C1.91465 57.665 33.0239 26.108 25.3235 19.7213C17.6231 13.3345 -2.4336 56.7053 -2.4336 56.7053C-2.4336 56.7053 15.3149 18.8187 7.12336 12.9029C-1.06817 6.98706 -3.96837 55.1536 -3.96837 55.1536C-3.96837 55.1536 -6.93176 14.2491 -17.7676 15.9879C-28.6034 17.7266 -9.02551 55.2831 -9.02551 55.2831Z" fill="#FFF5F6"/>
<path d="M-0.373728 60.5017C-0.373728 60.5017 9.21923 52.3607 12.3513 57.4407C15.4833 62.5206 -0.50379 63.1741 0.04411 62.878C0.592011 62.5819 11.8783 61.8991 12.2868 69.3347C12.6953 76.7703 -0.401453 64.5794 -0.401453 64.5794C-0.401453 64.5794 6.55941 69.7142 4.75367 75.7866C2.94792 81.8591 -1.82403 65.6857 -1.82403 65.6857C-1.82403 65.6857 1.89468 74.7188 -3.61318 77.2277C-9.12104 79.7366 -2.75957 65.5818 -2.75957 65.5818C-2.75957 65.5818 -9.53422 76.7469 -13.7176 72.3628C-17.901 67.9788 -3.95473 63.9519 -3.95473 63.9519C-3.95473 63.9519 -13.9724 68.0764 -14.9831 62.5541C-15.9937 57.0318 -4.41536 62.5342 -4.41536 62.5342C-4.41536 62.5342 -14.3641 56.2983 -9.74447 53.8311C-5.12483 51.3639 -3.75397 60.4728 -3.75397 60.4728C-3.75397 60.4728 -4.82375 47.0042 1.3295 48.7944C7.48275 50.5847 -0.373728 60.5017 -0.373728 60.5017Z" fill="#F63D68"/>
</g>
</svg>
