<svg width="56" height="129" viewBox="0 0 56 129" fill="none" xmlns="http://www.w3.org/2000/svg">
<path d="M56 0.162598L58.0344 50.5507C58.1414 53.2028 61.3865 54.4196 63.2109 52.4918L94.9932 18.9078L65.1614 56.9342C63.6632 58.8439 64.9351 61.6496 67.3588 61.7815L111.145 64.1626L67.3588 66.5437C64.9351 66.6756 63.6632 69.4813 65.1614 71.391L94.9932 109.417L63.2109 75.8334C61.3865 73.9056 58.1414 75.1224 58.0344 77.7745L56 128.163L53.9656 77.7745C53.8586 75.1224 50.6135 73.9056 48.7891 75.8334L17.0068 109.417L46.8386 71.391C48.3368 69.4813 47.0649 66.6756 44.6412 66.5437L0.855225 64.1626L44.6412 61.7815C47.0649 61.6496 48.3368 58.8439 46.8386 56.9342L17.0068 18.9078L48.7891 52.4918C50.6135 54.4196 53.8586 53.2028 53.9656 50.5507L56 0.162598Z" fill="#FEA3B4"/>
</svg>
